<svg xmlns="http://www.w3.org/2000/svg" width="970" height="640" viewBox="0 0 970 640">
<rect width="100%" height="100%" fill="white"/>
<style>text{font-family:Arial,"Microsoft YaHei","Noto Sans CJK SC",sans-serif;fill:#1f2937}.title{font-size:22px;font-weight:700}.sub{font-size:13px;fill:#4b5563}.axis{font-size:13px}.grid{stroke:#e5e7eb;stroke-width:1}</style>
<text class="title" x="30" y="37">MoE 流完成时间累计分布</text>
<text class="sub" x="30" y="60">需求 seed 20262530 · 背景流 0 条 · 六种机制使用相同输入 · 横轴为对数刻度</text>
<line class="grid" x1="95.00" y1="95" x2="95.00" y2="510"/>
<text class="axis" text-anchor="middle" x="95.00" y="534">10</text>
<line class="grid" x1="95" y1="510.00" x2="865" y2="510.00"/>
<text class="axis" text-anchor="end" x="86" y="514.00">0%</text>
<line class="grid" x1="95" y1="406.25" x2="865" y2="406.25"/>
<text class="axis" text-anchor="end" x="86" y="410.25">25%</text>
<line class="grid" x1="95" y1="302.50" x2="865" y2="302.50"/>
<text class="axis" text-anchor="end" x="86" y="306.50">50%</text>
<line class="grid" x1="95" y1="198.75" x2="865" y2="198.75"/>
<text class="axis" text-anchor="end" x="86" y="202.75">75%</text>
<line class="grid" x1="95" y1="136.50" x2="865" y2="136.50"/>
<text class="axis" text-anchor="end" x="86" y="140.50">90%</text>
<line class="grid" x1="95" y1="95.00" x2="865" y2="95.00"/>
<text class="axis" text-anchor="end" x="86" y="99.00">100%</text>
<rect x="95" y="95" width="770" height="415" fill="none" stroke="#374151"/>
<polyline points="141.44,509.97 148.70,508.94 150.98,507.90 152.02,506.86 153.19,505.82 154.41,504.78 155.70,503.74 156.98,502.71 158.20,501.67 159.35,500.63 160.63,499.59 161.84,498.55 162.69,497.54 163.71,496.50 164.68,495.46 165.52,494.42 166.42,493.38 167.26,492.35 167.92,491.31 168.82,490.27 169.36,489.23 170.08,488.19 170.62,487.15 171.27,486.11 171.99,485.08 172.29,484.04 172.70,483.00 173.18,481.96 173.72,480.92 174.19,479.88 174.49,478.84 174.84,477.81 175.14,476.77 175.38,475.73 175.67,474.69 175.91,473.65 176.15,472.64 176.50,471.60 176.74,470.56 176.98,469.52 177.27,468.48 177.51,467.45 177.81,466.41 177.98,465.37 178.28,464.33 178.57,463.29 178.87,462.25 179.10,461.22 179.28,460.18 179.46,459.14 179.63,458.10 179.99,457.06 180.16,456.02 180.40,454.98 180.58,453.95 180.81,452.91 181.05,451.87 181.28,450.83 181.58,449.79 181.75,448.78 182.05,447.74 182.28,446.70 182.46,445.66 182.69,444.62 182.93,443.59 183.16,442.55 183.40,441.51 183.57,440.47 183.86,439.43 184.10,438.39 184.33,437.35 184.68,436.32 184.92,435.28 185.21,434.24 185.44,433.20 185.68,432.16 185.97,431.12 186.20,430.09 186.44,429.05 186.67,428.01 186.90,426.97 187.19,425.93 187.43,424.89 187.66,423.88 187.89,422.84 188.18,421.80 188.47,420.76 188.77,419.73 189.06,418.69 189.29,417.65 189.58,416.61 189.99,415.57 190.28,414.53 190.57,413.49 190.80,412.46 191.03,411.42 191.38,410.38 191.67,409.34 192.01,408.30 192.42,407.26 192.71,406.22 193.05,405.19 193.46,404.15 193.75,403.11 194.15,402.07 194.44,401.03 194.78,400.02 195.24,398.98 195.53,397.94 195.94,396.90 196.22,395.86 196.45,394.83 196.80,393.79 197.26,392.75 197.66,391.71 198.06,390.67 198.29,389.63 198.63,388.60 198.92,387.56 199.26,386.52 199.61,385.48 199.95,384.44 200.35,383.40 200.63,382.36 200.98,381.33 201.26,380.29 201.49,379.25 201.72,378.21 202.06,377.17 202.40,376.13 202.63,375.12 202.86,374.08 203.09,373.04 203.37,372.00 203.65,370.97 203.94,369.93 204.17,368.89 204.45,367.85 204.73,366.81 204.90,365.77 205.19,364.73 205.41,363.70 205.58,362.66 206.04,361.62 206.26,360.58 206.55,359.54 206.77,358.50 207.11,357.47 207.45,356.43 207.68,355.39 207.85,354.35 208.13,353.31 208.41,352.27 208.70,351.26 208.92,350.22 209.09,349.18 209.37,348.14 209.71,347.11 209.99,346.07 210.27,345.03 210.44,343.99 210.72,342.95 211.01,341.91 211.23,340.87 211.40,339.84 211.62,338.80 212.02,337.76 212.24,336.72 212.47,335.68 212.69,334.64 212.91,333.60 213.25,332.57 213.53,331.53 213.75,330.49 213.92,329.45 214.09,328.41 214.26,327.37 214.54,326.36 214.82,325.32 215.10,324.28 215.43,323.24 215.66,322.21 215.94,321.17 216.16,320.13 216.49,319.09 216.83,318.05 217.16,317.01 217.44,315.98 217.72,314.94 218.05,313.90 218.28,312.86 218.55,311.82 218.78,310.78 219.00,309.74 219.22,308.71 219.44,307.67 219.66,306.63 219.94,305.59 220.16,304.55 220.44,303.51 220.61,302.47 220.94,301.46 221.27,300.42 221.60,299.38 221.94,298.35 222.16,297.31 222.38,296.27 222.71,295.23 223.04,294.19 223.32,293.15 223.65,292.11 223.93,291.08 224.37,290.04 224.70,289.00 225.08,287.96 225.30,286.92 225.63,285.88 225.96,284.85 226.29,283.81 226.62,282.77 226.90,281.73 227.23,280.69 227.56,279.65 227.83,278.61 228.16,277.60 228.60,276.56 229.03,275.52 229.42,274.49 229.86,273.45 230.18,272.41 230.51,271.37 230.95,270.33 231.38,269.29 231.77,268.25 232.20,267.22 232.47,266.18 232.80,265.14 233.18,264.10 233.62,263.06 233.94,262.02 234.27,260.98 234.65,259.95 235.08,258.91 235.52,257.87 235.90,256.83 236.38,255.79 236.76,254.75 237.09,253.72 237.47,252.70 237.84,251.66 238.38,250.62 238.87,249.59 239.52,248.55 240.00,247.51 240.49,246.47 240.86,245.43 241.24,244.39 241.72,243.36 242.10,242.32 242.58,241.28 242.90,240.24 243.44,239.20 243.97,238.16 244.40,237.12 244.83,236.09 245.20,235.05 245.68,234.01 246.27,232.97 246.64,231.93 247.18,230.89 247.60,229.85 248.03,228.84 248.46,227.80 248.88,226.76 249.25,225.73 249.73,224.69 250.26,223.65 250.68,222.61 251.06,221.57 251.48,220.53 251.85,219.49 252.33,218.46 252.91,217.42 253.49,216.38 254.01,215.34 254.38,214.30 254.86,213.26 255.28,212.23 255.70,211.19 256.17,210.15 256.59,209.11 257.07,208.07 257.70,207.03 258.27,205.99 258.69,204.96 259.06,203.94 259.58,202.90 260.00,201.87 260.47,200.83 260.94,199.79 261.41,198.75 261.77,197.71 262.24,196.67 262.61,195.63 262.92,194.60 263.39,193.56 263.80,192.52 264.22,191.48 264.63,190.44 265.05,189.40 265.62,188.36 266.14,187.33 266.55,186.29 266.91,185.25 267.43,184.21 268.00,183.17 268.41,182.13 268.77,181.10 269.19,180.08 269.55,179.04 270.06,178.01 270.52,176.97 270.99,175.93 271.50,174.89 271.91,173.85 272.48,172.81 272.99,171.77 273.55,170.74 274.17,169.70 274.73,168.66 275.34,167.62 275.90,166.58 276.41,165.54 277.18,164.50 277.69,163.47 278.20,162.43 278.60,161.39 279.31,160.35 279.82,159.31 280.38,158.27 280.94,157.23 281.54,156.20 282.20,155.18 282.96,154.14 283.77,153.11 284.52,152.07 285.23,151.03 285.83,149.99 286.44,148.95 287.39,147.91 288.39,146.88 288.89,145.84 289.59,144.80 290.29,143.76 290.84,142.72 291.44,141.68 292.44,140.64 293.18,139.61 294.03,138.57 294.97,137.53 295.86,136.49 296.70,135.45 297.45,134.41 298.19,133.37 299.07,132.34 299.81,131.32 300.70,130.28 301.88,129.25 302.91,128.21 304.33,127.17 305.40,126.13 307.16,125.09 308.91,124.05 310.51,123.01 311.91,121.98 313.07,120.94 314.57,119.90 315.96,118.86 316.92,117.82 318.12,116.78 319.13,115.74 320.23,114.71 321.66,113.67 322.94,112.63 323.99,111.59 325.41,110.55 326.93,109.51 327.97,108.48 329.05,107.44 330.65,106.42 333.52,105.39 335.62,104.35 337.76,103.31 341.34,102.27 347.32,101.23 352.40,100.19 359.28,99.15 365.47,98.12 368.81,97.08 371.82,96.04 374.69,95.41 378.55,95.05 378.90,95.00" fill="none" stroke="#4b5563" stroke-width="2.1"/>
<polyline points="141.62,509.97 148.02,508.94 150.12,507.90 151.16,506.86 152.51,505.82 153.62,504.78 154.90,503.74 156.25,502.71 158.08,501.67 159.47,500.63 160.81,499.59 161.72,498.55 163.11,497.54 163.95,496.50 164.74,495.46 165.64,494.42 166.48,493.38 167.32,492.35 167.98,491.31 168.70,490.27 169.54,489.23 169.96,488.19 170.50,487.15 171.03,486.11 171.51,485.08 171.93,484.04 172.35,483.00 172.82,481.96 173.18,480.92 173.66,479.88 173.95,478.84 174.19,477.81 174.55,476.77 174.96,475.73 175.26,474.69 175.56,473.65 175.73,472.64 175.97,471.60 176.33,470.56 176.50,469.52 176.86,468.48 177.10,467.45 177.33,466.41 177.57,465.37 177.81,464.33 177.98,463.29 178.22,462.25 178.51,461.22 178.81,460.18 178.99,459.14 179.22,458.10 179.46,457.06 179.69,456.02 179.93,454.98 180.16,453.95 180.40,452.91 180.64,451.87 180.81,450.83 180.99,449.79 181.22,448.78 181.46,447.74 181.64,446.70 181.81,445.66 182.11,444.62 182.34,443.59 182.63,442.55 182.93,441.51 183.22,440.47 183.57,439.43 183.81,438.39 184.10,437.35 184.33,436.32 184.63,435.28 184.92,434.24 185.21,433.20 185.44,432.16 185.79,431.12 186.03,430.09 186.44,429.05 186.79,428.01 187.08,426.97 187.43,425.93 187.78,424.89 188.01,423.88 188.24,422.84 188.53,421.80 188.77,420.76 189.00,419.73 189.29,418.69 189.64,417.65 189.99,416.61 190.33,415.57 190.57,414.53 190.85,413.49 191.03,412.46 191.32,411.42 191.55,410.38 191.84,409.34 192.13,408.30 192.48,407.26 192.82,406.22 193.17,405.19 193.46,404.15 193.75,403.11 194.21,402.07 194.50,401.03 194.73,400.02 195.01,398.98 195.42,397.94 195.76,396.90 196.05,395.86 196.40,394.83 196.80,393.79 197.26,392.75 197.54,391.71 197.83,390.67 198.17,389.63 198.46,388.60 198.80,387.56 199.26,386.52 199.66,385.48 200.06,384.44 200.29,383.40 200.75,382.36 201.15,381.33 201.55,380.29 201.95,379.25 202.23,378.21 202.52,377.17 202.80,376.13 203.09,375.12 203.54,374.08 203.83,373.04 204.11,372.00 204.45,370.97 204.73,369.93 205.07,368.89 205.36,367.85 205.70,366.81 205.92,365.77 206.15,364.73 206.43,363.70 206.72,362.66 207.06,361.62 207.28,360.58 207.51,359.54 207.79,358.50 208.02,357.47 208.30,356.43 208.47,355.39 208.81,354.35 209.15,353.31 209.43,352.27 209.71,351.26 209.88,350.22 210.16,349.18 210.44,348.14 210.67,347.11 210.89,346.07 211.12,345.03 211.45,343.99 211.79,342.95 212.07,341.91 212.30,340.87 212.52,339.84 212.80,338.80 213.08,337.76 213.31,336.72 213.53,335.68 213.75,334.64 213.98,333.60 214.20,332.57 214.48,331.53 214.71,330.49 214.93,329.45 215.15,328.41 215.49,327.37 215.77,326.36 216.05,325.32 216.27,324.28 216.60,323.24 216.88,322.21 217.16,321.17 217.38,320.13 217.61,319.09 217.89,318.05 218.11,317.01 218.39,315.98 218.66,314.94 219.00,313.90 219.22,312.86 219.50,311.82 219.83,310.78 220.05,309.74 220.27,308.71 220.55,307.67 220.83,306.63 221.11,305.59 221.33,304.55 221.60,303.51 221.94,302.47 222.21,301.46 222.49,300.42 222.71,299.38 222.99,298.35 223.26,297.31 223.54,296.27 223.76,295.23 224.04,294.19 224.37,293.15 224.70,292.11 224.92,291.08 225.25,290.04 225.52,289.00 225.80,287.96 226.07,286.92 226.35,285.88 226.62,284.85 226.84,283.81 227.12,282.77 227.45,281.73 227.83,280.69 228.16,279.65 228.38,278.61 228.65,277.60 229.03,276.56 229.42,275.52 229.69,274.49 230.13,273.45 230.46,272.41 230.84,271.37 231.11,270.33 231.55,269.29 231.82,268.25 232.15,267.22 232.53,266.18 232.96,265.14 233.29,264.10 233.56,263.06 233.94,262.02 234.21,260.98 234.65,259.95 234.92,258.91 235.25,257.87 235.63,256.83 235.95,255.79 236.55,254.75 237.03,253.72 237.52,252.70 238.01,251.66 238.44,250.62 238.82,249.59 239.46,248.55 239.89,247.51 240.43,246.47 240.92,245.43 241.40,244.39 241.94,243.36 242.37,242.32 242.90,241.28 243.22,240.24 243.76,239.20 244.24,238.16 244.67,237.12 244.99,236.09 245.47,235.05 246.06,234.01 246.43,232.97 247.02,231.93 247.55,230.89 248.03,229.85 248.46,228.84 248.83,227.80 249.36,226.76 249.78,225.73 250.31,224.69 250.79,223.65 251.21,222.61 251.85,221.57 252.22,220.53 252.70,219.49 253.33,218.46 253.80,217.42 254.23,216.38 254.59,215.34 255.02,214.30 255.38,213.26 255.80,212.23 256.33,211.19 256.80,210.15 257.17,209.11 257.59,208.07 257.91,207.03 258.43,205.99 258.90,204.96 259.32,203.94 259.74,202.90 260.26,201.87 260.83,200.83 261.20,199.79 261.72,198.75 262.19,197.71 262.76,196.67 263.18,195.63 263.70,194.60 264.11,193.56 264.48,192.52 264.95,191.48 265.46,190.44 265.88,189.40 266.29,188.36 266.81,187.33 267.43,186.29 267.90,185.25 268.36,184.21 268.88,183.17 269.34,182.13 269.80,181.10 270.32,180.08 270.78,179.04 271.30,178.01 271.76,176.97 272.17,175.93 272.68,174.89 273.19,173.85 273.81,172.81 274.32,171.77 274.73,170.74 275.29,169.70 275.80,168.66 276.16,167.62 276.62,166.58 277.08,165.54 277.48,164.50 277.89,163.47 278.35,162.43 278.76,161.39 279.26,160.35 279.87,159.31 280.33,158.27 280.94,157.23 281.54,156.20 282.10,155.18 282.66,154.14 283.16,153.11 283.82,152.07 284.27,151.03 284.78,149.99 285.33,148.95 286.13,147.91 286.69,146.88 287.24,145.84 288.14,144.80 288.84,143.76 289.54,142.72 290.19,141.68 290.84,140.64 291.69,139.61 292.44,138.57 293.18,137.53 293.93,136.49 294.77,135.45 295.47,134.41 296.26,133.37 296.95,132.34 297.64,131.32 298.38,130.28 299.32,129.25 300.35,128.21 301.44,127.17 302.91,126.13 304.67,125.09 305.94,124.05 307.89,123.01 310.27,121.98 312.01,120.94 314.28,119.90 316.16,118.86 317.74,117.82 319.42,116.78 320.47,115.74 321.66,114.71 323.04,113.67 324.28,112.63 325.60,111.59 326.79,110.55 328.06,109.51 329.43,108.48 331.17,107.44 333.09,106.42 334.73,105.39 337.44,104.35 339.99,103.31 343.41,102.27 347.78,101.23 352.53,100.19 357.43,99.15 365.33,98.12 369.96,97.08 375.30,96.04 378.07,95.41 379.29,95.05 379.47,95.00" fill="none" stroke="#2563eb" stroke-width="2.1"/>
<polyline points="141.50,509.97 149.19,508.94 151.41,507.90 152.88,506.86 153.86,505.82 155.21,504.78 156.19,503.74 157.04,502.71 157.83,501.67 159.23,500.63 160.08,499.59 161.11,498.55 162.20,497.54 163.17,496.50 164.01,495.46 164.86,494.42 166.36,493.38 167.26,492.35 168.22,491.31 168.82,490.27 169.66,489.23 170.56,488.19 171.27,487.15 171.99,486.11 172.64,485.08 173.12,484.04 173.54,483.00 173.95,481.96 174.25,480.92 174.67,479.88 175.02,478.84 175.32,477.81 175.56,476.77 175.85,475.73 176.21,474.69 176.44,473.65 176.74,472.64 177.04,471.60 177.33,470.56 177.57,469.52 177.81,468.48 178.10,467.45 178.34,466.41 178.63,465.37 178.87,464.33 179.05,463.29 179.28,462.25 179.52,461.22 179.81,460.18 180.05,459.14 180.22,458.10 180.46,457.06 180.64,456.02 180.87,454.98 181.17,453.95 181.40,452.91 181.69,451.87 181.93,450.83 182.22,449.79 182.46,448.78 182.63,447.74 182.81,446.70 183.10,445.66 183.34,444.62 183.63,443.59 183.92,442.55 184.16,441.51 184.39,440.47 184.63,439.43 184.92,438.39 185.15,437.35 185.39,436.32 185.62,435.28 185.85,434.24 186.14,433.20 186.44,432.16 186.73,431.12 186.90,430.09 187.08,429.05 187.43,428.01 187.72,426.97 188.01,425.93 188.30,424.89 188.59,423.88 189.00,422.84 189.35,421.80 189.58,420.76 189.99,419.73 190.39,418.69 190.68,417.65 191.03,416.61 191.38,415.57 191.78,414.53 192.07,413.49 192.36,412.46 192.71,411.42 193.05,410.38 193.34,409.34 193.75,408.30 194.09,407.26 194.50,406.22 194.73,405.19 195.07,404.15 195.42,403.11 195.76,402.07 196.05,401.03 196.28,400.02 196.68,398.98 197.08,397.94 197.37,396.90 197.60,395.86 198.00,394.83 198.29,393.79 198.63,392.75 198.98,391.71 199.26,390.67 199.55,389.63 199.89,388.60 200.23,387.56 200.52,386.52 200.75,385.48 201.09,384.44 201.38,383.40 201.66,382.36 202.00,381.33 202.23,380.29 202.46,379.25 202.69,378.21 202.92,377.17 203.20,376.13 203.43,375.12 203.65,374.08 203.94,373.04 204.34,372.00 204.68,370.97 204.96,369.93 205.19,368.89 205.53,367.85 205.75,366.81 206.04,365.77 206.32,364.73 206.60,363.70 206.94,362.66 207.17,361.62 207.57,360.58 207.85,359.54 208.13,358.50 208.41,357.47 208.75,356.43 209.09,355.39 209.43,354.35 209.65,353.31 209.99,352.27 210.22,351.26 210.44,350.22 210.84,349.18 211.12,348.14 211.57,347.11 211.79,346.07 212.07,345.03 212.30,343.99 212.58,342.95 212.80,341.91 213.08,340.87 213.36,339.84 213.70,338.80 214.03,337.76 214.37,336.72 214.71,335.68 214.99,334.64 215.32,333.60 215.54,332.57 215.82,331.53 216.10,330.49 216.38,329.45 216.55,328.41 216.83,327.37 217.11,326.36 217.38,325.32 217.66,324.28 217.94,323.24 218.22,322.21 218.61,321.17 218.89,320.13 219.28,319.09 219.72,318.05 220.00,317.01 220.22,315.98 220.50,314.94 220.66,313.90 221.00,312.86 221.27,311.82 221.49,310.78 221.77,309.74 221.99,308.71 222.27,307.67 222.66,306.63 222.93,305.59 223.21,304.55 223.54,303.51 223.81,302.47 224.09,301.46 224.26,300.42 224.53,299.38 224.75,298.35 224.97,297.31 225.36,296.27 225.63,295.23 225.85,294.19 226.18,293.15 226.51,292.11 226.79,291.08 227.12,290.04 227.45,289.00 227.72,287.96 227.99,286.92 228.27,285.88 228.60,284.85 228.98,283.81 229.20,282.77 229.47,281.73 229.86,280.69 230.18,279.65 230.51,278.61 230.89,277.60 231.28,276.56 231.66,275.52 231.98,274.49 232.42,273.45 232.80,272.41 233.07,271.37 233.35,270.33 233.67,269.29 234.05,268.25 234.38,267.22 234.76,266.18 235.14,265.14 235.63,264.10 235.90,263.06 236.33,262.02 236.76,260.98 237.25,259.95 237.57,258.91 238.11,257.87 238.55,256.83 239.14,255.79 239.52,254.75 239.79,253.72 240.22,252.70 240.86,251.66 241.24,250.62 241.67,249.59 242.04,248.55 242.47,247.51 242.85,246.47 243.22,245.43 243.55,244.39 243.92,243.36 244.29,242.32 244.72,241.28 245.10,240.24 245.52,239.20 245.79,238.16 246.27,237.12 246.64,236.09 247.02,235.05 247.50,234.01 247.82,232.97 248.14,231.93 248.61,230.89 249.04,229.85 249.57,228.84 249.94,227.80 250.37,226.76 250.84,225.73 251.32,224.69 251.74,223.65 252.11,222.61 252.64,221.57 253.01,220.53 253.43,219.49 253.75,218.46 254.17,217.42 254.59,216.38 255.17,215.34 255.59,214.30 256.02,213.26 256.38,212.23 256.70,211.19 257.12,210.15 257.59,209.11 258.06,208.07 258.43,207.03 258.90,205.99 259.27,204.96 259.63,203.94 260.05,202.90 260.57,201.87 260.89,200.83 261.30,199.79 261.83,198.75 262.35,197.71 262.76,196.67 263.39,195.63 263.91,194.60 264.37,193.56 264.89,192.52 265.41,191.48 265.93,190.44 266.55,189.40 267.02,188.36 267.59,187.33 268.00,186.29 268.51,185.25 268.98,184.21 269.49,183.17 269.96,182.13 270.58,181.10 271.14,180.08 271.66,179.04 272.17,178.01 272.78,176.97 273.35,175.93 273.96,174.89 274.58,173.85 275.34,172.81 275.96,171.77 276.57,170.74 277.08,169.70 277.69,168.66 278.25,167.62 278.91,166.58 279.47,165.54 279.97,164.50 280.48,163.47 281.04,162.43 281.70,161.39 282.51,160.35 282.91,159.31 283.31,158.27 283.82,157.23 284.32,156.20 284.88,155.18 285.23,154.14 285.73,153.11 286.33,152.07 286.89,151.03 287.34,149.99 288.09,148.95 288.79,147.91 289.49,146.88 290.19,145.84 291.04,144.80 291.89,143.76 292.73,142.72 293.63,141.68 294.57,140.64 295.42,139.61 296.36,138.57 297.15,137.53 298.38,136.49 299.03,135.45 299.62,134.41 300.26,133.37 301.24,132.34 301.93,131.32 302.66,130.28 303.40,129.25 304.23,128.21 305.01,127.17 305.99,126.13 306.82,125.09 307.79,124.05 308.76,123.01 309.88,121.98 311.43,120.94 312.64,119.90 314.18,118.86 316.11,117.82 317.60,116.78 318.70,115.74 319.80,114.71 321.42,113.67 322.80,112.63 323.90,111.59 325.60,110.55 327.54,109.51 331.08,108.48 333.66,107.44 336.04,106.42 337.90,105.39 341.34,104.35 345.17,103.31 347.69,102.27 350.07,101.23 352.94,100.19 357.07,99.15 360.99,98.12 365.73,97.08 369.65,96.04 373.36,95.41 376.49,95.05 376.88,95.00" fill="none" stroke="#16a34a" stroke-width="2.1"/>
<polyline points="141.56,509.97 149.13,508.94 150.86,507.90 152.27,506.86 153.68,505.82 154.78,504.78 155.94,503.74 157.04,502.71 158.08,501.67 158.93,500.63 159.60,499.59 160.63,498.55 161.48,497.54 162.44,496.50 163.23,495.46 164.44,494.42 165.28,493.38 166.18,492.35 167.56,491.31 168.34,490.27 169.06,489.23 169.66,488.19 170.26,487.15 170.80,486.11 171.39,485.08 171.93,484.04 172.47,483.00 172.94,481.96 173.30,480.92 173.66,479.88 174.07,478.84 174.37,477.81 174.67,476.77 175.08,475.73 175.44,474.69 175.73,473.65 175.97,472.64 176.27,471.60 176.50,470.56 176.80,469.52 177.04,468.48 177.27,467.45 177.51,466.41 177.75,465.37 178.04,464.33 178.46,463.29 178.63,462.25 178.87,461.22 179.16,460.18 179.34,459.14 179.58,458.10 179.81,457.06 180.05,456.02 180.28,454.98 180.52,453.95 180.75,452.91 180.93,451.87 181.11,450.83 181.34,449.79 181.58,448.78 181.69,447.74 181.87,446.70 182.11,445.66 182.40,444.62 182.57,443.59 182.81,442.55 183.10,441.51 183.40,440.47 183.63,439.43 183.86,438.39 184.16,437.35 184.39,436.32 184.57,435.28 184.80,434.24 185.03,433.20 185.27,432.16 185.44,431.12 185.68,430.09 185.97,429.05 186.14,428.01 186.38,426.97 186.73,425.93 187.02,424.89 187.31,423.88 187.60,422.84 187.83,421.80 188.07,420.76 188.42,419.73 188.77,418.69 189.06,417.65 189.29,416.61 189.52,415.57 189.87,414.53 190.16,413.49 190.51,412.46 190.80,411.42 191.09,410.38 191.38,409.34 191.72,408.30 192.01,407.26 192.30,406.22 192.65,405.19 192.94,404.15 193.23,403.11 193.46,402.07 193.86,401.03 194.27,400.02 194.55,398.98 194.96,397.94 195.30,396.90 195.71,395.86 196.11,394.83 196.51,393.79 196.80,392.75 197.20,391.71 197.60,390.67 197.89,389.63 198.35,388.60 198.63,387.56 198.98,386.52 199.26,385.48 199.61,384.44 199.78,383.40 200.18,382.36 200.41,381.33 200.69,380.29 200.92,379.25 201.26,378.21 201.49,377.17 201.78,376.13 202.00,375.12 202.23,374.08 202.52,373.04 202.80,372.00 203.03,370.97 203.37,369.93 203.65,368.89 204.00,367.85 204.22,366.81 204.45,365.77 204.68,364.73 205.13,363.70 205.41,362.66 205.75,361.62 205.87,360.58 206.15,359.54 206.38,358.50 206.72,357.47 207.11,356.43 207.40,355.39 207.62,354.35 208.07,353.31 208.41,352.27 208.70,351.26 208.98,350.22 209.26,349.18 209.54,348.14 209.82,347.11 210.05,346.07 210.33,345.03 210.61,343.99 211.01,342.95 211.29,341.91 211.57,340.87 211.96,339.84 212.24,338.80 212.52,337.76 212.80,336.72 213.08,335.68 213.36,334.64 213.64,333.60 213.87,332.57 214.09,331.53 214.37,330.49 214.65,329.45 214.93,328.41 215.26,327.37 215.54,326.36 215.82,325.32 216.21,324.28 216.49,323.24 216.77,322.21 217.05,321.17 217.33,320.13 217.61,319.09 217.77,318.05 218.11,317.01 218.39,315.98 218.55,314.94 218.83,313.90 219.05,312.86 219.39,311.82 219.66,310.78 219.94,309.74 220.16,308.71 220.44,307.67 220.61,306.63 220.83,305.59 221.11,304.55 221.33,303.51 221.55,302.47 221.83,301.46 222.16,300.42 222.43,299.38 222.71,298.35 222.99,297.31 223.26,296.27 223.54,295.23 223.93,294.19 224.20,293.15 224.48,292.11 224.75,291.08 225.03,290.04 225.36,289.00 225.69,287.96 226.02,286.92 226.40,285.88 226.73,284.85 227.06,283.81 227.34,282.77 227.61,281.73 227.94,280.69 228.32,279.65 228.65,278.61 228.87,277.60 229.14,276.56 229.36,275.52 229.58,274.49 229.86,273.45 230.18,272.41 230.57,271.37 230.89,270.33 231.22,269.29 231.49,268.25 231.88,267.22 232.26,266.18 232.53,265.14 232.80,264.10 233.02,263.06 233.35,262.02 233.73,260.98 234.05,259.95 234.49,258.91 234.87,257.87 235.30,256.83 235.79,255.79 236.17,254.75 236.55,253.72 236.92,252.70 237.47,251.66 237.84,250.62 238.28,249.59 238.71,248.55 239.19,247.51 239.57,246.47 240.05,245.43 240.54,244.39 240.92,243.36 241.35,242.32 241.72,241.28 242.04,240.24 242.53,239.20 243.01,238.16 243.49,237.12 243.92,236.09 244.29,235.05 244.62,234.01 244.94,232.97 245.31,231.93 245.68,230.89 246.32,229.85 246.64,228.84 247.18,227.80 247.60,226.76 247.98,225.73 248.40,224.69 248.93,223.65 249.41,222.61 249.94,221.57 250.47,220.53 251.11,219.49 251.58,218.46 252.01,217.42 252.64,216.38 253.06,215.34 253.49,214.30 253.96,213.26 254.44,212.23 254.86,211.19 255.28,210.15 255.80,209.11 256.17,208.07 256.54,207.03 256.91,205.99 257.33,204.96 257.80,203.94 258.11,202.90 258.48,201.87 258.85,200.83 259.37,199.79 259.79,198.75 260.21,197.71 260.63,196.67 260.89,195.63 261.20,194.60 261.62,193.56 262.09,192.52 262.40,191.48 262.76,190.44 263.18,189.40 263.49,188.36 264.01,187.33 264.43,186.29 264.95,185.25 265.52,184.21 265.93,183.17 266.29,182.13 266.65,181.10 267.22,180.08 267.90,179.04 268.46,178.01 269.08,176.97 269.70,175.93 270.32,174.89 270.99,173.85 271.71,172.81 272.27,171.77 272.78,170.74 273.45,169.70 274.01,168.66 274.63,167.62 275.19,166.58 275.75,165.54 276.41,164.50 277.28,163.47 277.99,162.43 278.45,161.39 279.21,160.35 279.67,159.31 280.43,158.27 281.24,157.23 281.85,156.20 282.61,155.18 283.31,154.14 284.37,153.11 285.23,152.07 286.18,151.03 286.94,149.99 287.64,148.95 288.34,147.91 289.14,146.88 289.94,145.84 290.69,144.80 291.79,143.76 292.49,142.72 293.23,141.68 293.93,140.64 294.52,139.61 295.32,138.57 295.96,137.53 296.95,136.49 297.79,135.45 298.88,134.41 299.96,133.37 301.14,132.34 302.27,131.32 304.03,130.28 305.21,129.25 306.28,128.21 307.45,127.17 309.15,126.13 310.22,125.09 311.14,124.05 312.20,123.01 313.27,121.98 314.47,120.94 315.53,119.90 316.68,118.86 317.93,117.82 319.75,116.78 321.09,115.74 322.47,114.71 323.75,113.67 325.08,112.63 326.31,111.59 328.68,110.55 331.41,109.51 334.69,108.48 338.69,107.44 341.20,106.42 344.06,105.39 348.29,104.35 352.12,103.31 355.21,102.27 360.00,101.23 363.05,100.19 365.02,99.15 367.29,98.12 369.96,97.08 373.14,96.04 376.31,95.41 380.08,95.05 380.60,95.00" fill="none" stroke="#9333ea" stroke-width="2.1"/>
<polyline points="141.19,509.97 149.56,508.94 151.41,507.90 152.45,506.86 153.80,505.82 154.96,504.78 155.88,503.74 156.86,502.71 157.95,501.67 159.47,500.63 160.63,499.59 161.96,498.55 162.99,497.54 163.83,496.50 164.68,495.46 165.52,494.42 166.42,493.38 167.44,492.35 168.28,491.31 169.12,490.27 169.72,489.23 170.32,488.19 170.86,487.15 171.39,486.11 171.99,485.08 172.35,484.04 172.76,483.00 173.42,481.96 174.01,480.92 174.43,479.88 174.78,478.84 175.08,477.81 175.38,476.77 175.73,475.73 176.09,474.69 176.33,473.65 176.74,472.64 177.10,471.60 177.33,470.56 177.57,469.52 177.81,468.48 178.04,467.45 178.40,466.41 178.63,465.37 178.93,464.33 179.16,463.29 179.46,462.25 179.69,461.22 179.87,460.18 180.05,459.14 180.28,458.10 180.64,457.06 180.93,456.02 181.22,454.98 181.46,453.95 181.64,452.91 181.99,451.87 182.16,450.83 182.40,449.79 182.63,448.78 182.81,447.74 183.04,446.70 183.34,445.66 183.63,444.62 183.81,443.59 184.04,442.55 184.27,441.51 184.57,440.47 184.86,439.43 185.09,438.39 185.33,437.35 185.62,436.32 185.85,435.28 186.09,434.24 186.38,433.20 186.61,432.16 186.90,431.12 187.25,430.09 187.54,429.05 187.78,428.01 188.07,426.97 188.47,425.93 188.77,424.89 189.06,423.88 189.29,422.84 189.58,421.80 189.87,420.76 190.10,419.73 190.39,418.69 190.68,417.65 190.91,416.61 191.14,415.57 191.43,414.53 191.72,413.49 192.01,412.46 192.36,411.42 192.59,410.38 192.94,409.34 193.23,408.30 193.57,407.26 193.92,406.22 194.21,405.19 194.50,404.15 194.96,403.11 195.24,402.07 195.53,401.03 195.94,400.02 196.28,398.98 196.68,397.94 197.08,396.90 197.31,395.86 197.66,394.83 198.06,393.79 198.46,392.75 198.63,391.71 198.98,390.67 199.21,389.63 199.61,388.60 199.83,387.56 200.06,386.52 200.29,385.48 200.52,384.44 200.81,383.40 201.09,382.36 201.43,381.33 201.78,380.29 202.06,379.25 202.52,378.21 202.74,377.17 202.97,376.13 203.31,375.12 203.60,374.08 203.88,373.04 204.11,372.00 204.45,370.97 204.79,369.93 205.07,368.89 205.30,367.85 205.64,366.81 205.81,365.77 206.04,364.73 206.26,363.70 206.60,362.66 206.83,361.62 207.11,360.58 207.45,359.54 207.79,358.50 208.07,357.47 208.36,356.43 208.64,355.39 208.92,354.35 209.20,353.31 209.37,352.27 209.65,351.26 209.94,350.22 210.16,349.18 210.56,348.14 210.72,347.11 210.95,346.07 211.23,345.03 211.51,343.99 211.74,342.95 211.96,341.91 212.30,340.87 212.63,339.84 212.97,338.80 213.25,337.76 213.47,336.72 213.87,335.68 214.15,334.64 214.48,333.60 214.82,332.57 215.10,331.53 215.38,330.49 215.66,329.45 215.88,328.41 216.27,327.37 216.49,326.36 216.72,325.32 217.05,324.28 217.33,323.24 217.66,322.21 217.89,321.17 218.33,320.13 218.55,319.09 218.94,318.05 219.28,317.01 219.55,315.98 219.89,314.94 220.11,313.90 220.33,312.86 220.66,311.82 220.94,310.78 221.22,309.74 221.49,308.71 221.77,307.67 221.94,306.63 222.16,305.59 222.49,304.55 222.77,303.51 223.04,302.47 223.37,301.46 223.70,300.42 223.98,299.38 224.26,298.35 224.64,297.31 224.92,296.27 225.19,295.23 225.47,294.19 225.80,293.15 226.07,292.11 226.35,291.08 226.62,290.04 227.01,289.00 227.28,287.96 227.61,286.92 227.88,285.88 228.16,284.85 228.43,283.81 228.82,282.77 229.09,281.73 229.36,280.69 229.64,279.65 229.96,278.61 230.18,277.60 230.46,276.56 230.84,275.52 231.17,274.49 231.44,273.45 231.71,272.41 232.09,271.37 232.42,270.33 232.75,269.29 233.13,268.25 233.51,267.22 233.78,266.18 234.11,265.14 234.49,264.10 234.97,263.06 235.35,262.02 235.73,260.98 236.17,259.95 236.49,258.91 236.87,257.87 237.20,256.83 237.63,255.79 238.06,254.75 238.44,253.72 238.92,252.70 239.41,251.66 239.79,250.62 240.11,249.59 240.54,248.55 241.18,247.51 241.61,246.47 242.04,245.43 242.42,244.39 242.85,243.36 243.28,242.32 243.71,241.28 244.19,240.24 244.56,239.20 244.88,238.16 245.36,237.12 245.79,236.09 246.27,235.05 246.59,234.01 247.02,232.97 247.44,231.93 247.98,230.89 248.40,229.85 248.83,228.84 249.46,227.80 249.89,226.76 250.26,225.73 250.68,224.69 251.11,223.65 251.58,222.61 252.01,221.57 252.54,220.53 253.12,219.49 253.49,218.46 253.91,217.42 254.33,216.38 254.70,215.34 255.12,214.30 255.49,213.26 255.86,212.23 256.38,211.19 256.80,210.15 257.22,209.11 257.64,208.07 258.11,207.03 258.69,205.99 259.06,204.96 259.42,203.94 259.95,202.90 260.47,201.87 260.89,200.83 261.36,199.79 262.03,198.75 262.55,197.71 262.97,196.67 263.39,195.63 263.75,194.60 264.27,193.56 264.84,192.52 265.26,191.48 265.72,190.44 266.24,189.40 266.71,188.36 267.28,187.33 267.84,186.29 268.26,185.25 268.72,184.21 269.29,183.17 269.91,182.13 270.42,181.10 271.04,180.08 271.66,179.04 272.01,178.01 272.53,176.97 273.04,175.93 273.55,174.89 274.06,173.85 274.58,172.81 274.93,171.77 275.55,170.74 276.11,169.70 276.72,168.66 277.33,167.62 277.94,166.58 278.45,165.54 278.96,164.50 279.52,163.47 280.33,162.43 280.84,161.39 281.49,160.35 282.05,159.31 282.81,158.27 283.57,157.23 284.47,156.20 285.18,155.18 285.98,154.14 286.64,153.11 287.44,152.07 288.04,151.03 288.79,149.99 289.29,148.95 290.04,147.91 290.69,146.88 291.34,145.84 291.99,144.80 292.78,143.76 293.53,142.72 294.47,141.68 295.22,140.64 296.41,139.61 297.35,138.57 298.14,137.53 299.27,136.49 300.35,135.45 301.39,134.41 302.66,133.37 303.84,132.34 304.82,131.32 306.18,130.28 307.65,129.25 308.72,128.21 310.32,127.17 311.48,126.13 312.88,125.09 314.38,124.05 315.82,123.01 317.07,121.98 318.51,120.94 319.61,119.90 321.18,118.86 322.61,117.82 323.85,116.78 325.41,115.74 327.07,114.71 328.39,113.67 330.79,112.63 333.56,111.59 335.20,110.55 336.51,109.51 338.18,108.48 339.34,107.44 340.78,106.42 342.95,105.39 347.65,104.35 350.76,103.31 355.30,102.27 361.80,101.23 366.63,100.19 371.24,99.15 375.13,98.12 383.13,97.08 391.77,96.04 396.05,95.41 403.51,95.05 404.01,95.00" fill="none" stroke="#d97706" stroke-width="2.1"/>
<polyline points="141.62,509.97 148.88,508.94 150.73,507.90 151.65,506.86 152.51,505.82 153.56,504.78 154.54,503.74 156.00,502.71 157.65,501.67 159.05,500.63 160.69,499.59 161.90,498.55 163.11,497.54 163.77,496.50 164.50,495.46 165.58,494.42 166.30,493.38 167.08,492.35 168.04,491.31 168.82,490.27 169.42,489.23 169.84,488.19 170.44,487.15 170.97,486.11 171.45,485.08 171.81,484.04 172.23,483.00 172.64,481.96 173.12,480.92 173.54,479.88 173.95,478.84 174.37,477.81 174.73,476.77 174.90,475.73 175.26,474.69 175.56,473.65 175.73,472.64 176.09,471.60 176.39,470.56 176.62,469.52 176.86,468.48 177.10,467.45 177.39,466.41 177.63,465.37 177.92,464.33 178.10,463.29 178.34,462.25 178.57,461.22 178.81,460.18 179.05,459.14 179.34,458.10 179.58,457.06 179.75,456.02 179.99,454.98 180.22,453.95 180.46,452.91 180.69,451.87 180.93,450.83 181.22,449.79 181.46,448.78 181.64,447.74 181.87,446.70 182.05,445.66 182.28,444.62 182.57,443.59 182.81,442.55 183.10,441.51 183.34,440.47 183.57,439.43 183.86,438.39 184.16,437.35 184.33,436.32 184.68,435.28 184.92,434.24 185.21,433.20 185.50,432.16 185.74,431.12 186.09,430.09 186.44,429.05 186.73,428.01 186.90,426.97 187.19,425.93 187.49,424.89 187.78,423.88 188.07,422.84 188.24,421.80 188.42,420.76 188.71,419.73 189.00,418.69 189.29,417.65 189.58,416.61 189.87,415.57 190.22,414.53 190.51,413.49 190.68,412.46 190.97,411.42 191.26,410.38 191.61,409.34 191.90,408.30 192.13,407.26 192.24,406.22 192.48,405.19 192.88,404.15 193.17,403.11 193.40,402.07 193.69,401.03 193.92,400.02 194.15,398.98 194.44,397.94 194.67,396.90 194.96,395.86 195.36,394.83 195.71,393.79 196.05,392.75 196.45,391.71 196.97,390.67 197.31,389.63 197.60,388.60 198.06,387.56 198.35,386.52 198.75,385.48 199.21,384.44 199.55,383.40 199.89,382.36 200.23,381.33 200.69,380.29 201.03,379.25 201.43,378.21 201.83,377.17 202.17,376.13 202.52,375.12 202.86,374.08 203.14,373.04 203.48,372.00 203.77,370.97 204.17,369.93 204.45,368.89 204.73,367.85 205.07,366.81 205.30,365.77 205.75,364.73 206.04,363.70 206.43,362.66 206.77,361.62 207.06,360.58 207.34,359.54 207.62,358.50 207.96,357.47 208.30,356.43 208.58,355.39 208.81,354.35 209.15,353.31 209.43,352.27 209.65,351.26 209.88,350.22 210.05,349.18 210.33,348.14 210.56,347.11 210.84,346.07 211.17,345.03 211.34,343.99 211.62,342.95 211.90,341.91 212.13,340.87 212.35,339.84 212.58,338.80 212.80,337.76 213.08,336.72 213.36,335.68 213.59,334.64 213.87,333.60 214.09,332.57 214.31,331.53 214.54,330.49 214.82,329.45 215.10,328.41 215.32,327.37 215.49,326.36 215.82,325.32 216.10,324.28 216.33,323.24 216.60,322.21 216.83,321.17 217.05,320.13 217.27,319.09 217.44,318.05 217.66,317.01 217.94,315.98 218.16,314.94 218.44,313.90 218.72,312.86 219.00,311.82 219.22,310.78 219.44,309.74 219.66,308.71 220.00,307.67 220.27,306.63 220.55,305.59 220.88,304.55 221.16,303.51 221.38,302.47 221.72,301.46 221.99,300.42 222.16,299.38 222.49,298.35 222.71,297.31 222.99,296.27 223.21,295.23 223.54,294.19 223.81,293.15 224.09,292.11 224.37,291.08 224.59,290.04 224.86,289.00 225.14,287.96 225.36,286.92 225.74,285.88 225.96,284.85 226.29,283.81 226.57,282.77 226.84,281.73 227.17,280.69 227.45,279.65 227.72,278.61 228.05,277.60 228.38,276.56 228.71,275.52 229.03,274.49 229.36,273.45 229.69,272.41 230.02,271.37 230.35,270.33 230.67,269.29 231.06,268.25 231.33,267.22 231.71,266.18 231.98,265.14 232.37,264.10 232.75,263.06 233.07,262.02 233.35,260.98 233.73,259.95 234.16,258.91 234.49,257.87 234.92,256.83 235.35,255.79 235.84,254.75 236.33,253.72 236.76,252.70 237.14,251.66 237.52,250.62 237.90,249.59 238.22,248.55 238.65,247.51 239.09,246.47 239.57,245.43 240.05,244.39 240.49,243.36 240.97,242.32 241.45,241.28 241.83,240.24 242.42,239.20 242.85,238.16 243.28,237.12 243.76,236.09 244.29,235.05 244.83,234.01 245.36,232.97 245.95,231.93 246.54,230.89 247.07,229.85 247.71,228.84 248.14,227.80 248.56,226.76 249.15,225.73 249.57,224.69 250.05,223.65 250.58,222.61 251.21,221.57 251.85,220.53 252.38,219.49 252.96,218.46 253.33,217.42 253.80,216.38 254.23,215.34 254.65,214.30 255.17,213.26 255.70,212.23 256.23,211.19 256.70,210.15 257.22,209.11 257.75,208.07 258.17,207.03 258.64,205.99 259.16,204.96 259.63,203.94 260.10,202.90 260.52,201.87 260.89,200.83 261.36,199.79 261.77,198.75 262.40,197.71 262.92,196.67 263.44,195.63 263.91,194.60 264.32,193.56 264.74,192.52 265.15,191.48 265.57,190.44 265.98,189.40 266.45,188.36 266.97,187.33 267.43,186.29 267.90,185.25 268.46,184.21 269.03,183.17 269.60,182.13 269.96,181.10 270.47,180.08 270.99,179.04 271.40,178.01 271.86,176.97 272.27,175.93 272.68,174.89 273.09,173.85 273.45,172.81 273.81,171.77 274.17,170.74 274.78,169.70 275.29,168.66 275.70,167.62 276.11,166.58 276.62,165.54 277.13,164.50 277.54,163.47 278.09,162.43 278.55,161.39 279.11,160.35 279.82,159.31 280.58,158.27 281.29,157.23 282.00,156.20 282.56,155.18 283.41,154.14 284.37,153.11 285.53,152.07 286.38,151.03 287.19,149.99 287.99,148.95 288.89,147.91 289.84,146.88 291.09,145.84 291.79,144.80 292.39,143.76 293.28,142.72 294.03,141.68 294.77,140.64 295.27,139.61 295.71,138.57 296.26,137.53 296.80,136.49 297.45,135.45 298.04,134.41 298.73,133.37 299.42,132.34 300.16,131.32 301.19,130.28 301.93,129.25 302.71,128.21 303.55,127.17 304.72,126.13 305.84,125.09 307.45,124.05 308.91,123.01 310.56,121.98 311.77,120.94 314.14,119.90 316.30,118.86 317.74,117.82 318.94,116.78 319.99,115.74 320.94,114.71 321.99,113.67 322.90,112.63 323.66,111.59 324.70,110.55 325.60,109.51 326.50,108.48 327.26,107.44 329.05,106.42 333.33,105.39 337.53,104.35 339.90,103.31 343.23,102.27 347.69,101.23 351.39,100.19 357.47,99.15 364.35,98.12 369.60,97.08 374.38,96.04 377.19,95.41 379.64,95.05 380.17,95.00" fill="none" stroke="#dc2626" stroke-width="2.1"/>
<line x1="80" y1="568" x2="105" y2="568" stroke="#4b5563" stroke-width="3"/>
<text class="axis" x="113" y="572">ECMP (n=16384)</text>
<line x1="350" y1="568" x2="375" y2="568" stroke="#2563eb" stroke-width="3"/>
<text class="axis" x="383" y="572">DRILL (n=16384)</text>
<line x1="620" y1="568" x2="645" y2="568" stroke="#16a34a" stroke-width="3"/>
<text class="axis" x="653" y="572">CONGA (n=16384)</text>
<line x1="80" y1="591" x2="105" y2="591" stroke="#9333ea" stroke-width="3"/>
<text class="axis" x="113" y="595">LetFlow (n=16384)</text>
<line x1="350" y1="591" x2="375" y2="591" stroke="#d97706" stroke-width="3"/>
<text class="axis" x="383" y="595">ConWeave (n=16384)</text>
<line x1="620" y1="591" x2="645" y2="591" stroke="#dc2626" stroke-width="3"/>
<text class="axis" x="653" y="595">ClassReserve (n=16384)</text>
<text class="axis" text-anchor="middle" x="480" y="552">单流完成时间（微秒，log10）</text>
<text class="sub" x="945" y="627" text-anchor="end">原始 ID 与 SHA 见配套 CDF 索引；仿真 SHA ce699dffe2845dc8…</text>
</svg>
