<svg xmlns="http://www.w3.org/2000/svg" width="970" height="640" viewBox="0 0 970 640">
<rect width="100%" height="100%" fill="white"/>
<style>text{font-family:Arial,"Microsoft YaHei","Noto Sans CJK SC",sans-serif;fill:#1f2937}.title{font-size:22px;font-weight:700}.sub{font-size:13px;fill:#4b5563}.axis{font-size:13px}.grid{stroke:#e5e7eb;stroke-width:1}</style>
<text class="title" x="30" y="37">MoE 流完成时间累计分布</text>
<text class="sub" x="30" y="60">需求 seed 20262531 · 背景流 128 条 · 六种机制使用相同输入 · 横轴为对数刻度</text>
<line class="grid" x1="95.00" y1="95" x2="95.00" y2="510"/>
<text class="axis" text-anchor="middle" x="95.00" y="534">10</text>
<line class="grid" x1="95" y1="510.00" x2="865" y2="510.00"/>
<text class="axis" text-anchor="end" x="86" y="514.00">0%</text>
<line class="grid" x1="95" y1="406.25" x2="865" y2="406.25"/>
<text class="axis" text-anchor="end" x="86" y="410.25">25%</text>
<line class="grid" x1="95" y1="302.50" x2="865" y2="302.50"/>
<text class="axis" text-anchor="end" x="86" y="306.50">50%</text>
<line class="grid" x1="95" y1="198.75" x2="865" y2="198.75"/>
<text class="axis" text-anchor="end" x="86" y="202.75">75%</text>
<line class="grid" x1="95" y1="136.50" x2="865" y2="136.50"/>
<text class="axis" text-anchor="end" x="86" y="140.50">90%</text>
<line class="grid" x1="95" y1="99.15" x2="865" y2="99.15"/>
<text class="axis" text-anchor="end" x="86" y="103.15">99%</text>
<line class="grid" x1="95" y1="95.00" x2="865" y2="95.00"/>
<text class="axis" text-anchor="end" x="86" y="99.00">100%</text>
<rect x="95" y="95" width="770" height="415" fill="none" stroke="#374151"/>
<polyline points="139.25,509.97 148.76,508.94 150.79,507.90 152.02,506.86 153.31,505.82 154.54,504.78 155.51,503.74 156.61,502.71 157.28,501.67 157.77,500.63 158.68,499.59 159.35,498.55 160.08,497.54 160.63,496.50 161.72,495.46 162.50,494.42 163.35,493.38 164.32,492.35 165.22,491.31 166.42,490.27 167.08,489.23 168.04,488.19 168.64,487.15 169.36,486.11 170.14,485.08 170.92,484.04 171.45,483.00 171.87,481.96 172.41,480.92 173.00,479.88 173.42,478.84 173.89,477.81 174.31,476.77 174.84,475.73 175.32,474.69 175.56,473.65 175.85,472.64 176.15,471.60 176.39,470.56 176.74,469.52 177.04,468.48 177.27,467.45 177.63,466.41 178.04,465.37 178.28,464.33 178.46,463.29 178.81,462.25 179.16,461.22 179.40,460.18 179.58,459.14 179.93,458.10 180.16,457.06 180.52,456.02 180.75,454.98 180.93,453.95 181.17,452.91 181.40,451.87 181.58,450.83 181.81,449.79 182.05,448.78 182.22,447.74 182.46,446.70 182.75,445.66 183.04,444.62 183.34,443.59 183.63,442.55 183.86,441.51 184.16,440.47 184.45,439.43 184.68,438.39 184.92,437.35 185.09,436.32 185.27,435.28 185.56,434.24 185.85,433.20 186.14,432.16 186.38,431.12 186.61,430.09 186.90,429.05 187.31,428.01 187.54,426.97 187.83,425.93 188.13,424.89 188.42,423.88 188.77,422.84 189.06,421.80 189.29,420.76 189.58,419.73 190.04,418.69 190.39,417.65 190.68,416.61 191.20,415.57 191.61,414.53 191.96,413.49 192.30,412.46 192.59,411.42 193.05,410.38 193.40,409.34 193.69,408.30 194.03,407.26 194.44,406.22 194.67,405.19 194.90,404.15 195.36,403.11 195.76,402.07 196.05,401.03 196.34,400.02 196.68,398.98 197.03,397.94 197.37,396.90 197.77,395.86 198.17,394.83 198.46,393.79 198.80,392.75 199.21,391.71 199.55,390.67 199.89,389.63 200.18,388.60 200.52,387.56 200.86,386.52 201.15,385.48 201.49,384.44 201.89,383.40 202.23,382.36 202.52,381.33 202.86,380.29 203.14,379.25 203.37,378.21 203.60,377.17 203.83,376.13 204.11,375.12 204.39,374.08 204.73,373.04 204.96,372.00 205.19,370.97 205.41,369.93 205.70,368.89 205.98,367.85 206.26,366.81 206.55,365.77 206.77,364.73 207.00,363.70 207.23,362.66 207.45,361.62 207.74,360.58 208.02,359.54 208.30,358.50 208.53,357.47 208.86,356.43 209.15,355.39 209.49,354.35 209.71,353.31 210.05,352.27 210.39,351.26 210.61,350.22 210.95,349.18 211.34,348.14 211.62,347.11 212.02,346.07 212.35,345.03 212.75,343.99 213.03,342.95 213.42,341.91 213.70,340.87 214.09,339.84 214.43,338.80 214.76,337.76 214.99,336.72 215.38,335.68 215.71,334.64 216.05,333.60 216.44,332.57 216.83,331.53 217.11,330.49 217.33,329.45 217.66,328.41 218.00,327.37 218.39,326.36 218.61,325.32 219.00,324.28 219.28,323.24 219.83,322.21 220.05,321.17 220.39,320.13 220.66,319.09 221.05,318.05 221.44,317.01 221.72,315.98 221.99,314.94 222.32,313.90 222.60,312.86 222.88,311.82 223.15,310.78 223.43,309.74 223.76,308.71 224.15,307.67 224.53,306.63 224.92,305.59 225.30,304.55 225.63,303.51 226.02,302.47 226.40,301.46 226.84,300.42 227.17,299.38 227.56,298.35 227.94,297.31 228.32,296.27 228.71,295.23 229.20,294.19 229.69,293.15 230.07,292.11 230.40,291.08 230.73,290.04 231.17,289.00 231.66,287.96 231.98,286.92 232.47,285.88 232.75,284.85 233.18,283.81 233.62,282.77 233.94,281.73 234.27,280.69 234.59,279.65 235.03,278.61 235.46,277.60 235.73,276.56 236.17,275.52 236.65,274.49 237.09,273.45 237.52,272.41 238.11,271.37 238.49,270.33 238.98,269.29 239.46,268.25 239.89,267.22 240.59,266.18 241.18,265.14 241.72,264.10 242.10,263.06 242.69,262.02 243.12,260.98 243.65,259.95 244.08,258.91 244.62,257.87 245.20,256.83 245.68,255.79 246.38,254.75 246.96,253.72 247.50,252.70 247.92,251.66 248.40,250.62 248.83,249.59 249.15,248.55 249.57,247.51 250.00,246.47 250.47,245.43 251.11,244.39 251.64,243.36 252.06,242.32 252.48,241.28 252.91,240.24 253.38,239.20 253.70,238.16 254.12,237.12 254.70,236.09 255.23,235.05 255.54,234.01 255.80,232.97 256.23,231.93 256.70,230.89 257.28,229.85 257.64,228.84 258.11,227.80 258.69,226.76 259.16,225.73 259.53,224.69 260.10,223.65 260.73,222.61 261.25,221.57 261.83,220.53 262.40,219.49 263.02,218.46 263.65,217.42 264.37,216.38 264.89,215.34 265.46,214.30 266.09,213.26 266.71,212.23 267.33,211.19 267.95,210.15 268.51,209.11 268.98,208.07 269.55,207.03 270.01,205.99 270.58,204.96 271.04,203.94 271.66,202.90 272.12,201.87 272.63,200.83 273.14,199.79 273.55,198.75 274.06,197.71 274.73,196.67 275.50,195.63 276.11,194.60 276.57,193.56 277.23,192.52 277.69,191.48 278.09,190.44 278.50,189.40 279.16,188.36 279.72,187.33 280.43,186.29 281.14,185.25 281.70,184.21 282.51,183.17 283.31,182.13 284.17,181.10 284.73,180.08 285.53,179.04 286.33,178.01 287.19,176.97 287.84,175.93 288.54,174.89 289.49,173.85 290.09,172.81 290.69,171.77 291.49,170.74 292.14,169.70 292.88,168.66 293.58,167.62 294.42,166.58 295.47,165.54 296.36,164.50 297.50,163.47 298.24,162.43 299.27,161.39 300.21,160.35 301.24,159.31 302.47,158.27 303.55,157.23 305.26,156.20 306.72,155.18 307.65,154.14 308.62,153.11 309.35,152.07 310.27,151.03 311.04,149.99 311.67,148.95 312.35,147.91 313.27,146.88 313.99,145.84 314.86,144.80 316.01,143.76 316.92,142.72 317.74,141.68 318.75,140.64 319.65,139.61 320.80,138.57 322.04,137.53 323.14,136.49 323.94,135.45 325.13,134.41 326.12,133.37 327.02,132.34 328.20,131.32 329.62,130.28 330.89,129.25 331.97,128.21 333.19,127.17 334.40,126.13 335.53,125.09 336.92,124.05 338.60,123.01 339.95,121.98 341.10,120.94 342.68,119.90 344.43,118.86 346.36,117.82 347.65,116.78 349.02,115.74 351.03,114.71 352.53,113.67 354.03,112.63 355.53,111.59 357.56,110.55 359.59,109.51 362.07,108.48 363.50,107.44 367.21,106.42 371.29,105.39 375.52,104.35 381.78,103.31 385.43,102.27 391.25,101.23 397.20,100.19 400.89,99.15 408.38,98.12 429.20,97.08 438.70,96.04 446.82,95.41 462.98,95.05 467.36,95.00" fill="none" stroke="#4b5563" stroke-width="2.1"/>
<polyline points="140.94,509.97 150.86,508.94 152.70,507.90 154.23,506.86 156.06,505.82 157.71,504.78 158.93,503.74 159.84,502.71 160.99,501.67 162.20,500.63 163.35,499.59 164.19,498.55 165.16,497.54 166.06,496.50 166.66,495.46 167.50,494.42 168.16,493.38 169.30,492.35 170.08,491.31 170.80,490.27 171.51,489.23 171.99,488.19 172.88,487.15 173.54,486.11 174.01,485.08 174.55,484.04 175.08,483.00 175.56,481.96 176.09,480.92 176.56,479.88 176.74,478.84 177.04,477.81 177.33,476.77 177.81,475.73 178.04,474.69 178.40,473.65 178.81,472.64 179.28,471.60 179.58,470.56 179.93,469.52 180.16,468.48 180.52,467.45 180.75,466.41 180.99,465.37 181.28,464.33 181.64,463.29 181.81,462.25 182.05,461.22 182.28,460.18 182.57,459.14 182.93,458.10 183.16,457.06 183.40,456.02 183.63,454.98 183.92,453.95 184.16,452.91 184.39,451.87 184.74,450.83 184.98,449.79 185.21,448.78 185.50,447.74 185.74,446.70 186.03,445.66 186.26,444.62 186.55,443.59 186.90,442.55 187.14,441.51 187.54,440.47 187.66,439.43 187.95,438.39 188.18,437.35 188.47,436.32 188.71,435.28 188.94,434.24 189.17,433.20 189.52,432.16 189.81,431.12 190.04,430.09 190.28,429.05 190.51,428.01 190.80,426.97 190.97,425.93 191.26,424.89 191.49,423.88 191.72,422.84 192.01,421.80 192.19,420.76 192.48,419.73 192.76,418.69 193.05,417.65 193.28,416.61 193.46,415.57 193.80,414.53 194.09,413.49 194.44,412.46 194.61,411.42 194.84,410.38 195.07,409.34 195.42,408.30 195.65,407.26 195.88,406.22 196.22,405.19 196.57,404.15 196.91,403.11 197.14,402.07 197.37,401.03 197.60,400.02 197.89,398.98 198.17,397.94 198.46,396.90 198.69,395.86 198.92,394.83 199.15,393.79 199.43,392.75 199.66,391.71 199.95,390.67 200.23,389.63 200.52,388.60 200.75,387.56 201.09,386.52 201.43,385.48 201.72,384.44 202.00,383.40 202.23,382.36 202.46,381.33 202.80,380.29 203.09,379.25 203.43,378.21 203.65,377.17 204.00,376.13 204.34,375.12 204.56,374.08 204.85,373.04 205.19,372.00 205.53,370.97 205.98,369.93 206.49,368.89 206.89,367.85 207.28,366.81 207.62,365.77 207.96,364.73 208.36,363.70 208.64,362.66 209.03,361.62 209.37,360.58 209.65,359.54 209.88,358.50 210.16,357.47 210.50,356.43 210.84,355.39 211.17,354.35 211.51,353.31 211.85,352.27 212.24,351.26 212.75,350.22 213.14,349.18 213.53,348.14 213.81,347.11 214.26,346.07 214.65,345.03 215.04,343.99 215.49,342.95 215.99,341.91 216.38,340.87 216.72,339.84 217.05,338.80 217.44,337.76 217.94,336.72 218.28,335.68 218.55,334.64 218.83,333.60 219.16,332.57 219.55,331.53 220.00,330.49 220.39,329.45 220.66,328.41 221.00,327.37 221.33,326.36 221.60,325.32 221.88,324.28 222.21,323.24 222.49,322.21 222.88,321.17 223.21,320.13 223.43,319.09 223.76,318.05 224.04,317.01 224.42,315.98 224.75,314.94 225.03,313.90 225.36,312.86 225.69,311.82 225.96,310.78 226.24,309.74 226.51,308.71 226.84,307.67 227.06,306.63 227.45,305.59 227.77,304.55 228.21,303.51 228.54,302.47 228.93,301.46 229.31,300.42 229.64,299.38 229.91,298.35 230.18,297.31 230.51,296.27 230.78,295.23 231.06,294.19 231.38,293.15 231.77,292.11 232.04,291.08 232.26,290.04 232.47,289.00 232.75,287.96 232.96,286.92 233.18,285.88 233.40,284.85 233.67,283.81 234.00,282.77 234.21,281.73 234.43,280.69 234.76,279.65 235.08,278.61 235.30,277.60 235.52,276.56 235.90,275.52 236.17,274.49 236.44,273.45 236.76,272.41 237.03,271.37 237.30,270.33 237.57,269.29 237.84,268.25 238.11,267.22 238.38,266.18 238.71,265.14 238.98,264.10 239.25,263.06 239.62,262.02 239.89,260.98 240.11,259.95 240.32,258.91 240.54,257.87 240.81,256.83 241.02,255.79 241.24,254.75 241.45,253.72 241.72,252.70 241.99,251.66 242.26,250.62 242.42,249.59 242.69,248.55 243.01,247.51 243.44,246.47 243.71,245.43 243.97,244.39 244.40,243.36 244.72,242.32 244.99,241.28 245.20,240.24 245.42,239.20 245.68,238.16 246.11,237.12 246.48,236.09 246.86,235.05 247.34,234.01 247.87,232.97 248.30,231.93 248.72,230.89 249.04,229.85 249.41,228.84 249.84,227.80 250.31,226.76 250.79,225.73 251.11,224.69 251.48,223.65 251.80,222.61 252.17,221.57 252.43,220.53 253.01,219.49 253.38,218.46 253.91,217.42 254.23,216.38 254.59,215.34 254.96,214.30 255.33,213.26 255.65,212.23 256.07,211.19 256.44,210.15 256.80,209.11 257.22,208.07 257.70,207.03 258.06,205.99 258.53,204.96 258.80,203.94 259.21,202.90 259.63,201.87 260.00,200.83 260.42,199.79 260.94,198.75 261.46,197.71 261.93,196.67 262.50,195.63 262.87,194.60 263.34,193.56 263.80,192.52 264.27,191.48 264.79,190.44 265.15,189.40 265.57,188.36 266.03,187.33 266.55,186.29 267.12,185.25 267.64,184.21 268.15,183.17 268.62,182.13 269.19,181.10 269.80,180.08 270.37,179.04 270.94,178.01 271.50,176.97 272.12,175.93 272.73,174.89 273.40,173.85 274.12,172.81 274.73,171.77 275.34,170.74 275.80,169.70 276.47,168.66 277.03,167.62 277.59,166.58 278.45,165.54 279.06,164.50 279.97,163.47 280.73,162.43 281.49,161.39 282.25,160.35 282.96,159.31 283.67,158.27 284.22,157.23 285.03,156.20 285.58,155.18 286.23,154.14 286.94,153.11 287.79,152.07 288.44,151.03 289.34,149.99 289.89,148.95 290.79,147.91 291.64,146.88 292.44,145.84 293.08,144.80 293.73,143.76 294.57,142.72 295.27,141.68 295.96,140.64 296.61,139.61 297.54,138.57 298.48,137.53 299.22,136.49 300.01,135.45 300.99,134.41 301.83,133.37 302.61,132.34 303.20,131.32 304.13,130.28 305.06,129.25 306.09,128.21 306.82,127.17 307.65,126.13 308.62,125.09 309.35,124.05 310.22,123.01 311.09,121.98 311.82,120.94 312.54,119.90 313.60,118.86 314.71,117.82 315.68,116.78 316.54,115.74 317.74,114.71 318.99,113.67 320.08,112.63 321.37,111.59 323.14,110.55 324.51,109.51 325.84,108.48 327.59,107.44 328.91,106.42 330.98,105.39 333.84,104.35 338.23,103.31 342.86,102.27 355.21,101.23 361.75,100.19 369.47,99.15 374.55,98.12 381.39,97.08 390.78,96.04 399.83,95.41 406.41,95.05 408.42,95.00" fill="none" stroke="#2563eb" stroke-width="2.1"/>
<polyline points="141.25,509.97 147.90,508.94 150.36,507.90 151.29,506.86 152.88,505.82 154.29,504.78 155.15,503.74 156.13,502.71 157.10,501.67 157.71,500.63 158.68,499.59 159.41,498.55 160.38,497.54 161.29,496.50 162.02,495.46 162.69,494.42 163.83,493.38 164.74,492.35 165.70,491.31 166.36,490.27 167.20,489.23 168.10,488.19 168.76,487.15 169.48,486.11 170.32,485.08 171.33,484.04 172.23,483.00 172.82,481.96 173.24,480.92 173.83,479.88 174.25,478.84 174.67,477.81 175.14,476.77 175.50,475.73 175.85,474.69 176.21,473.65 176.56,472.64 176.92,471.60 177.33,470.56 177.69,469.52 178.04,468.48 178.34,467.45 178.63,466.41 178.93,465.37 179.22,464.33 179.46,463.29 179.69,462.25 179.99,461.22 180.28,460.18 180.52,459.14 180.87,458.10 181.05,457.06 181.28,456.02 181.58,454.98 181.93,453.95 182.22,452.91 182.52,451.87 182.81,450.83 183.16,449.79 183.34,448.78 183.51,447.74 183.75,446.70 184.04,445.66 184.33,444.62 184.63,443.59 184.92,442.55 185.33,441.51 185.62,440.47 185.85,439.43 186.14,438.39 186.38,437.35 186.67,436.32 186.96,435.28 187.25,434.24 187.49,433.20 187.83,432.16 188.24,431.12 188.53,430.09 188.88,429.05 189.11,428.01 189.40,426.97 189.69,425.93 189.93,424.89 190.22,423.88 190.62,422.84 190.80,421.80 191.14,420.76 191.38,419.73 191.72,418.69 192.07,417.65 192.30,416.61 192.59,415.57 192.94,414.53 193.17,413.49 193.57,412.46 193.80,411.42 194.03,410.38 194.44,409.34 194.73,408.30 195.13,407.26 195.59,406.22 195.99,405.19 196.28,404.15 196.63,403.11 197.03,402.07 197.26,401.03 197.54,400.02 197.77,398.98 198.06,397.94 198.40,396.90 198.75,395.86 199.09,394.83 199.38,393.79 199.66,392.75 200.01,391.71 200.29,390.67 200.58,389.63 200.86,388.60 201.09,387.56 201.43,386.52 201.78,385.48 202.17,384.44 202.52,383.40 202.86,382.36 203.14,381.33 203.54,380.29 203.94,379.25 204.22,378.21 204.68,377.17 204.96,376.13 205.30,375.12 205.53,374.08 205.87,373.04 206.04,372.00 206.38,370.97 206.72,369.93 207.06,368.89 207.40,367.85 207.68,366.81 208.02,365.77 208.41,364.73 208.70,363.70 208.92,362.66 209.26,361.62 209.54,360.58 209.94,359.54 210.22,358.50 210.61,357.47 210.95,356.43 211.17,355.39 211.45,354.35 211.79,353.31 212.02,352.27 212.41,351.26 212.58,350.22 212.97,349.18 213.36,348.14 213.70,347.11 214.15,346.07 214.54,345.03 214.76,343.99 215.10,342.95 215.38,341.91 215.77,340.87 215.99,339.84 216.27,338.80 216.49,337.76 216.83,336.72 217.33,335.68 217.66,334.64 217.94,333.60 218.28,332.57 218.61,331.53 219.00,330.49 219.28,329.45 219.55,328.41 219.83,327.37 220.22,326.36 220.55,325.32 220.94,324.28 221.16,323.24 221.44,322.21 221.72,321.17 222.16,320.13 222.60,319.09 223.04,318.05 223.37,317.01 223.87,315.98 224.20,314.94 224.59,313.90 224.92,312.86 225.41,311.82 225.80,310.78 226.18,309.74 226.68,308.71 227.12,307.67 227.39,306.63 227.77,305.59 228.21,304.55 228.60,303.51 229.09,302.47 229.53,301.46 229.91,300.42 230.35,299.38 230.67,298.35 231.06,297.31 231.49,296.27 231.88,295.23 232.37,294.19 232.86,293.15 233.18,292.11 233.56,291.08 234.05,290.04 234.38,289.00 234.81,287.96 235.19,286.92 235.52,285.88 235.90,284.85 236.33,283.81 236.71,282.77 237.09,281.73 237.52,280.69 238.01,279.65 238.38,278.61 238.82,277.60 239.19,276.56 239.62,275.52 240.11,274.49 240.59,273.45 241.08,272.41 241.40,271.37 241.88,270.33 242.37,269.29 242.90,268.25 243.33,267.22 243.71,266.18 244.13,265.14 244.51,264.10 244.88,263.06 245.36,262.02 245.79,260.98 246.27,259.95 246.59,258.91 247.02,257.87 247.55,256.83 248.19,255.79 248.61,254.75 248.99,253.72 249.52,252.70 250.05,251.66 250.53,250.62 250.95,249.59 251.32,248.55 252.01,247.51 252.54,246.47 253.22,245.43 253.80,244.39 254.49,243.36 255.12,242.32 255.80,241.28 256.38,240.24 256.96,239.20 257.59,238.16 258.32,237.12 259.01,236.09 259.69,235.05 260.36,234.01 260.83,232.97 261.25,231.93 261.77,230.89 262.61,229.85 263.13,228.84 263.60,227.80 264.17,226.76 264.84,225.73 265.36,224.69 265.93,223.65 266.40,222.61 266.91,221.57 267.48,220.53 268.21,219.49 268.62,218.46 269.08,217.42 269.75,216.38 270.27,215.34 270.78,214.30 271.09,213.26 271.60,212.23 272.22,211.19 272.73,210.15 273.35,209.11 273.76,208.07 274.47,207.03 275.04,205.99 275.96,204.96 276.47,203.94 277.23,202.90 277.89,201.87 278.50,200.83 279.16,199.79 279.97,198.75 280.68,197.71 281.39,196.67 282.20,195.63 282.86,194.60 283.67,193.56 284.57,192.52 285.33,191.48 286.08,190.44 286.84,189.40 287.54,188.36 288.44,187.33 289.54,186.29 290.59,185.25 291.29,184.21 292.14,183.17 293.13,182.13 294.18,181.10 295.61,180.08 296.80,179.04 297.84,178.01 298.58,176.97 299.81,175.93 300.85,174.89 301.53,173.85 302.37,172.81 303.30,171.77 304.13,170.74 305.01,169.70 305.99,168.66 306.77,167.62 307.60,166.58 308.33,165.54 309.10,164.50 310.03,163.47 311.14,162.43 312.06,161.39 312.74,160.35 313.41,159.31 314.18,158.27 314.76,157.23 315.77,156.20 316.64,155.18 317.26,154.14 318.12,153.11 319.18,152.07 320.18,151.03 320.85,149.99 321.56,148.95 322.52,147.91 323.47,146.88 324.61,145.84 325.51,144.80 326.55,143.76 327.26,142.72 327.83,141.68 328.72,140.64 329.62,139.61 330.84,138.57 332.11,137.53 333.00,136.49 333.94,135.45 335.11,134.41 336.27,133.37 337.39,132.34 338.55,131.32 339.81,130.28 341.15,129.25 342.26,128.21 343.83,127.17 345.30,126.13 347.60,125.09 349.06,124.05 350.66,123.01 352.94,121.98 356.80,120.94 359.59,119.90 361.75,118.86 363.77,117.82 366.09,116.78 367.83,115.74 369.38,114.71 370.93,113.67 373.32,112.63 375.70,111.59 377.98,110.55 379.99,109.51 382.61,108.48 384.95,107.44 386.43,106.42 388.89,105.39 391.60,104.35 396.09,103.31 401.48,102.27 410.89,101.23 421.28,100.19 427.65,99.15 431.18,98.12 434.57,97.08 445.67,96.04 453.19,95.41 460.28,95.05 468.17,95.00" fill="none" stroke="#16a34a" stroke-width="2.1"/>
<polyline points="139.44,509.97 148.33,508.94 150.36,507.90 152.33,506.86 153.56,505.82 154.54,504.78 155.45,503.74 156.49,502.71 157.47,501.67 158.44,500.63 159.17,499.59 160.02,498.55 160.75,497.54 161.72,496.50 162.56,495.46 163.35,494.42 164.07,493.38 164.92,492.35 165.64,491.31 166.30,490.27 167.20,489.23 168.04,488.19 168.82,487.15 169.54,486.11 170.26,485.08 170.97,484.04 171.81,483.00 172.47,481.96 172.82,480.92 173.54,479.88 173.95,478.84 174.43,477.81 174.78,476.77 175.20,475.73 175.50,474.69 175.91,473.65 176.27,472.64 176.56,471.60 176.92,470.56 177.27,469.52 177.75,468.48 178.04,467.45 178.28,466.41 178.63,465.37 179.05,464.33 179.34,463.29 179.63,462.25 179.93,461.22 180.16,460.18 180.40,459.14 180.58,458.10 180.87,457.06 181.11,456.02 181.34,454.98 181.58,453.95 181.93,452.91 182.16,451.87 182.40,450.83 182.63,449.79 182.87,448.78 183.04,447.74 183.22,446.70 183.45,445.66 183.81,444.62 184.16,443.59 184.39,442.55 184.57,441.51 184.86,440.47 185.21,439.43 185.50,438.39 185.79,437.35 186.09,436.32 186.38,435.28 186.61,434.24 186.84,433.20 187.08,432.16 187.43,431.12 187.72,430.09 188.07,429.05 188.36,428.01 188.82,426.97 189.17,425.93 189.52,424.89 189.75,423.88 190.04,422.84 190.45,421.80 190.74,420.76 190.97,419.73 191.26,418.69 191.61,417.65 191.84,416.61 192.24,415.57 192.65,414.53 192.94,413.49 193.28,412.46 193.57,411.42 193.80,410.38 194.15,409.34 194.50,408.30 194.73,407.26 195.01,406.22 195.36,405.19 195.65,404.15 195.99,403.11 196.28,402.07 196.63,401.03 196.97,400.02 197.20,398.98 197.49,397.94 197.72,396.90 198.00,395.86 198.29,394.83 198.58,393.79 198.80,392.75 199.15,391.71 199.43,390.67 199.83,389.63 200.12,388.60 200.41,387.56 200.63,386.52 200.98,385.48 201.38,384.44 201.60,383.40 201.89,382.36 202.23,381.33 202.57,380.29 202.86,379.25 203.09,378.21 203.43,377.17 203.83,376.13 204.11,375.12 204.34,374.08 204.73,373.04 205.07,372.00 205.36,370.97 205.70,369.93 205.92,368.89 206.32,367.85 206.66,366.81 206.94,365.77 207.23,364.73 207.51,363.70 207.79,362.66 208.07,361.62 208.30,360.58 208.64,359.54 208.92,358.50 209.20,357.47 209.49,356.43 209.94,355.39 210.22,354.35 210.61,353.31 210.84,352.27 211.12,351.26 211.40,350.22 211.74,349.18 212.07,348.14 212.41,347.11 212.63,346.07 212.86,345.03 213.19,343.99 213.47,342.95 213.87,341.91 214.20,340.87 214.48,339.84 214.71,338.80 215.04,337.76 215.32,336.72 215.60,335.68 215.99,334.64 216.33,333.60 216.66,332.57 216.88,331.53 217.11,330.49 217.44,329.45 217.72,328.41 218.05,327.37 218.28,326.36 218.61,325.32 219.00,324.28 219.33,323.24 219.72,322.21 220.11,321.17 220.44,320.13 220.83,319.09 221.27,318.05 221.60,317.01 222.05,315.98 222.49,314.94 222.99,313.90 223.32,312.86 223.65,311.82 223.98,310.78 224.37,309.74 224.70,308.71 224.97,307.67 225.30,306.63 225.52,305.59 225.96,304.55 226.35,303.51 226.73,302.47 227.06,301.46 227.56,300.42 227.94,299.38 228.54,298.35 228.98,297.31 229.31,296.27 229.86,295.23 230.18,294.19 230.57,293.15 231.06,292.11 231.49,291.08 231.82,290.04 232.47,289.00 232.91,287.96 233.45,286.92 233.94,285.88 234.43,284.85 234.76,283.81 235.19,282.77 235.68,281.73 236.11,280.69 236.65,279.65 236.98,278.61 237.47,277.60 237.79,276.56 238.28,275.52 238.87,274.49 239.25,273.45 239.68,272.41 240.16,271.37 240.70,270.33 241.24,269.29 241.67,268.25 242.21,267.22 242.90,266.18 243.55,265.14 243.92,264.10 244.40,263.06 244.94,262.02 245.47,260.98 246.06,259.95 246.54,258.91 247.12,257.87 247.82,256.83 248.51,255.79 249.20,254.75 249.78,253.72 250.47,252.70 251.06,251.66 251.80,250.62 252.48,249.59 253.06,248.55 253.75,247.51 254.28,246.47 254.75,245.43 255.28,244.39 255.70,243.36 256.17,242.32 256.59,241.28 257.07,240.24 257.43,239.20 257.85,238.16 258.43,237.12 258.95,236.09 259.48,235.05 260.00,234.01 260.47,232.97 261.20,231.93 261.88,230.89 262.40,229.85 262.87,228.84 263.44,227.80 263.91,226.76 264.37,225.73 264.84,224.69 265.46,223.65 265.88,222.61 266.40,221.57 266.76,220.53 267.22,219.49 267.69,218.46 268.36,217.42 268.82,216.38 269.29,215.34 269.70,214.30 270.11,213.26 270.73,212.23 271.14,211.19 271.66,210.15 272.12,209.11 272.73,208.07 273.14,207.03 273.60,205.99 274.06,204.96 274.47,203.94 274.83,202.90 275.39,201.87 275.90,200.83 276.52,199.79 277.13,198.75 277.64,197.71 278.30,196.67 278.70,195.63 279.31,194.60 279.77,193.56 280.23,192.52 280.73,191.48 281.24,190.44 281.80,189.40 282.15,188.36 282.71,187.33 283.11,186.29 283.72,185.25 284.27,184.21 284.93,183.17 285.53,182.13 286.18,181.10 286.64,180.08 287.49,179.04 287.99,178.01 288.39,176.97 288.99,175.93 289.49,174.89 290.04,173.85 290.74,172.81 291.44,171.77 291.89,170.74 292.69,169.70 293.28,168.66 294.03,167.62 294.92,166.58 295.47,165.54 296.11,164.50 296.85,163.47 297.45,162.43 298.14,161.39 298.78,160.35 299.42,159.31 300.16,158.27 300.94,157.23 301.73,156.20 302.42,155.18 303.10,154.14 303.79,153.11 304.52,152.07 305.26,151.03 306.67,149.99 307.60,148.95 308.33,147.91 309.25,146.88 310.22,145.84 311.38,144.80 312.64,143.76 313.65,142.72 315.19,141.68 316.35,140.64 318.17,139.61 320.04,138.57 321.75,137.53 323.14,136.49 324.66,135.45 326.46,134.41 327.59,133.37 329.24,132.34 330.94,131.32 333.47,130.28 335.11,129.25 337.30,128.21 338.97,127.17 341.10,126.13 342.86,125.09 344.57,124.05 346.36,123.01 348.06,121.98 349.43,120.94 350.80,119.90 352.44,118.86 354.08,117.82 356.34,116.78 358.47,115.74 361.03,114.71 363.54,113.67 366.80,112.63 369.25,111.59 372.84,110.55 375.48,109.51 378.11,108.48 381.39,107.44 383.56,106.42 387.94,105.39 392.97,104.35 397.20,103.31 402.29,102.27 405.82,101.23 411.85,100.19 417.36,99.15 421.60,98.12 425.53,97.08 431.83,96.04 435.25,95.41 439.26,95.05 452.95,95.00" fill="none" stroke="#9333ea" stroke-width="2.1"/>
<polyline points="139.81,509.97 149.07,508.94 150.92,507.90 152.64,506.86 154.11,505.82 155.27,504.78 156.00,503.74 156.74,502.71 157.59,501.67 158.56,500.63 159.17,499.59 159.60,498.55 160.51,497.54 161.11,496.50 161.78,495.46 162.38,494.42 162.93,493.38 163.71,492.35 164.80,491.31 165.58,490.27 166.36,489.23 167.08,488.19 167.80,487.15 168.88,486.11 169.36,485.08 170.26,484.04 171.03,483.00 171.81,481.96 172.41,480.92 173.00,479.88 173.42,478.84 173.83,477.81 174.43,476.77 174.84,475.73 175.14,474.69 175.62,473.65 176.03,472.64 176.39,471.60 176.92,470.56 177.39,469.52 177.63,468.48 177.92,467.45 178.28,466.41 178.75,465.37 179.05,464.33 179.40,463.29 179.69,462.25 179.99,461.22 180.16,460.18 180.40,459.14 180.69,458.10 181.17,457.06 181.46,456.02 181.75,454.98 182.11,453.95 182.46,452.91 182.75,451.87 183.04,450.83 183.22,449.79 183.45,448.78 183.81,447.74 184.10,446.70 184.33,445.66 184.63,444.62 184.92,443.59 185.15,442.55 185.44,441.51 185.68,440.47 185.97,439.43 186.32,438.39 186.61,437.35 186.79,436.32 187.02,435.28 187.37,434.24 187.60,433.20 187.78,432.16 188.01,431.12 188.24,430.09 188.65,429.05 189.00,428.01 189.35,426.97 189.58,425.93 189.87,424.89 190.16,423.88 190.57,422.84 190.80,421.80 191.26,420.76 191.55,419.73 191.84,418.69 192.24,417.65 192.59,416.61 192.88,415.57 193.28,414.53 193.75,413.49 193.98,412.46 194.32,411.42 194.67,410.38 194.90,409.34 195.24,408.30 195.59,407.26 195.94,406.22 196.40,405.19 196.57,404.15 196.80,403.11 197.08,402.07 197.37,401.03 197.77,400.02 198.00,398.98 198.29,397.94 198.63,396.90 199.15,395.86 199.49,394.83 199.83,393.79 200.29,392.75 200.58,391.71 200.92,390.67 201.32,389.63 201.72,388.60 201.95,387.56 202.35,386.52 202.57,385.48 202.97,384.44 203.31,383.40 203.65,382.36 203.94,381.33 204.17,380.29 204.45,379.25 204.73,378.21 205.02,377.17 205.30,376.13 205.58,375.12 205.87,374.08 206.32,373.04 206.66,372.00 207.06,370.97 207.40,369.93 207.74,368.89 207.96,367.85 208.36,366.81 208.75,365.77 208.98,364.73 209.26,363.70 209.54,362.66 209.88,361.62 210.16,360.58 210.50,359.54 210.84,358.50 211.23,357.47 211.51,356.43 211.79,355.39 212.02,354.35 212.24,353.31 212.58,352.27 212.86,351.26 213.19,350.22 213.47,349.18 213.75,348.14 214.20,347.11 214.59,346.07 214.93,345.03 215.32,343.99 215.77,342.95 215.99,341.91 216.33,340.87 216.83,339.84 217.11,338.80 217.44,337.76 217.89,336.72 218.22,335.68 218.55,334.64 218.94,333.60 219.28,332.57 219.61,331.53 220.00,330.49 220.39,329.45 220.77,328.41 221.11,327.37 221.60,326.36 222.05,325.32 222.38,324.28 222.82,323.24 223.10,322.21 223.48,321.17 223.81,320.13 224.15,319.09 224.53,318.05 224.86,317.01 225.19,315.98 225.63,314.94 226.02,313.90 226.40,312.86 226.79,311.82 227.23,310.78 227.61,309.74 228.05,308.71 228.49,307.67 228.76,306.63 229.20,305.59 229.58,304.55 229.91,303.51 230.24,302.47 230.67,301.46 231.11,300.42 231.55,299.38 231.93,298.35 232.53,297.31 232.91,296.27 233.40,295.23 233.89,294.19 234.38,293.15 235.08,292.11 235.68,291.08 236.06,290.04 236.55,289.00 237.09,287.96 237.79,286.92 238.38,285.88 238.76,284.85 239.30,283.81 239.79,282.77 240.38,281.73 240.86,280.69 241.35,279.65 241.67,278.61 241.99,277.60 242.53,276.56 243.06,275.52 243.71,274.49 244.19,273.45 244.72,272.41 245.26,271.37 245.79,270.33 246.27,269.29 246.75,268.25 247.18,267.22 247.66,266.18 248.14,265.14 248.67,264.10 249.25,263.06 249.73,262.02 250.37,260.98 250.74,259.95 251.06,258.91 251.48,257.87 251.85,256.83 252.22,255.79 252.70,254.75 253.06,253.72 253.59,252.70 254.01,251.66 254.49,250.62 254.96,249.59 255.33,248.55 255.86,247.51 256.33,246.47 256.70,245.43 257.22,244.39 257.75,243.36 258.27,242.32 258.85,241.28 259.53,240.24 260.10,239.20 260.68,238.16 261.36,237.12 261.88,236.09 262.35,235.05 262.87,234.01 263.54,232.97 264.06,231.93 264.58,230.89 265.10,229.85 265.62,228.84 266.03,227.80 266.60,226.76 267.17,225.73 267.59,224.69 268.21,223.65 268.77,222.61 269.39,221.57 269.80,220.53 270.27,219.49 270.88,218.46 271.35,217.42 272.01,216.38 272.68,215.34 273.09,214.30 273.60,213.26 274.12,212.23 274.47,211.19 275.04,210.15 275.60,209.11 276.01,208.07 276.41,207.03 276.92,205.99 277.54,204.96 277.89,203.94 278.50,202.90 279.01,201.87 279.52,200.83 279.97,199.79 280.38,198.75 280.94,197.71 281.54,196.67 282.05,195.63 282.61,194.60 283.01,193.56 283.52,192.52 284.12,191.48 284.88,190.44 285.58,189.40 286.13,188.36 286.54,187.33 286.94,186.29 287.44,185.25 287.99,184.21 288.59,183.17 289.14,182.13 289.59,181.10 290.19,180.08 290.94,179.04 291.44,178.01 292.14,176.97 292.73,175.93 293.38,174.89 293.83,173.85 294.42,172.81 295.22,171.77 295.91,170.74 296.46,169.70 297.10,168.66 297.64,167.62 298.33,166.58 299.07,165.54 299.76,164.50 300.70,163.47 301.44,162.43 302.47,161.39 303.15,160.35 304.08,159.31 304.91,158.27 305.79,157.23 306.48,156.20 307.06,155.18 308.23,154.14 309.06,153.11 309.98,152.07 310.75,151.03 311.53,149.99 312.54,148.95 313.32,147.91 314.76,146.88 315.82,145.84 316.73,144.80 317.60,143.76 318.41,142.72 319.56,141.68 320.56,140.64 321.56,139.61 322.99,138.57 324.28,137.53 325.60,136.49 326.55,135.45 327.83,134.41 329.15,133.37 330.70,132.34 331.87,131.32 333.05,130.28 334.08,129.25 335.29,128.21 336.27,127.17 337.48,126.13 339.02,125.09 341.20,124.05 343.05,123.01 345.26,121.98 347.23,120.94 349.48,119.90 351.07,118.86 352.85,117.82 354.71,116.78 356.30,115.74 358.56,114.71 360.27,113.67 362.38,112.63 363.99,111.59 366.54,110.55 371.60,109.51 375.83,108.48 379.99,107.44 382.70,106.42 385.69,105.39 388.50,104.35 394.42,103.31 404.10,102.27 407.80,101.23 411.93,100.19 420.87,99.15 433.36,98.12 446.86,97.08 466.94,96.04 494.37,95.41 524.03,95.05 524.25,95.00" fill="none" stroke="#d97706" stroke-width="2.1"/>
<polyline points="139.50,509.97 149.75,508.94 151.84,507.90 153.25,506.86 154.29,505.82 155.94,504.78 156.86,503.74 157.89,502.71 158.87,501.67 159.47,500.63 160.57,499.59 161.11,498.55 161.90,497.54 162.87,496.50 163.77,495.46 164.80,494.42 165.64,493.38 166.60,492.35 167.26,491.31 168.04,490.27 168.76,489.23 169.72,488.19 170.44,487.15 171.03,486.11 171.69,485.08 172.47,484.04 172.94,483.00 173.42,481.96 173.83,480.92 174.19,479.88 174.67,478.84 175.02,477.81 175.44,476.77 175.91,475.73 176.21,474.69 176.62,473.65 176.92,472.64 177.27,471.60 177.51,470.56 177.81,469.52 178.10,468.48 178.40,467.45 178.63,466.41 178.87,465.37 179.10,464.33 179.34,463.29 179.63,462.25 179.93,461.22 180.28,460.18 180.52,459.14 180.75,458.10 181.05,457.06 181.28,456.02 181.40,454.98 181.69,453.95 181.99,452.91 182.22,451.87 182.34,450.83 182.63,449.79 182.87,448.78 183.04,447.74 183.34,446.70 183.57,445.66 183.81,444.62 183.98,443.59 184.22,442.55 184.51,441.51 184.68,440.47 184.86,439.43 185.09,438.39 185.39,437.35 185.56,436.32 185.85,435.28 186.09,434.24 186.26,433.20 186.61,432.16 186.96,431.12 187.31,430.09 187.49,429.05 187.83,428.01 188.18,426.97 188.47,425.93 188.82,424.89 189.11,423.88 189.52,422.84 189.75,421.80 190.16,420.76 190.45,419.73 190.80,418.69 191.14,417.65 191.43,416.61 191.84,415.57 192.24,414.53 192.48,413.49 192.76,412.46 193.23,411.42 193.52,410.38 193.86,409.34 194.27,408.30 194.67,407.26 195.01,406.22 195.36,405.19 195.71,404.15 195.99,403.11 196.40,402.07 196.68,401.03 197.03,400.02 197.20,398.98 197.54,397.94 197.89,396.90 198.23,395.86 198.52,394.83 198.80,393.79 199.03,392.75 199.32,391.71 199.72,390.67 200.18,389.63 200.46,388.60 200.75,387.56 201.09,386.52 201.38,385.48 201.72,384.44 202.06,383.40 202.40,382.36 202.63,381.33 202.97,380.29 203.20,379.25 203.48,378.21 203.88,377.17 204.22,376.13 204.56,375.12 204.90,374.08 205.30,373.04 205.53,372.00 205.87,370.97 206.21,369.93 206.55,368.89 206.89,367.85 207.11,366.81 207.57,365.77 207.85,364.73 208.13,363.70 208.47,362.66 208.86,361.62 209.20,360.58 209.43,359.54 209.71,358.50 210.05,357.47 210.44,356.43 210.78,355.39 211.12,354.35 211.45,353.31 211.85,352.27 212.18,351.26 212.47,350.22 212.69,349.18 212.97,348.14 213.31,347.11 213.64,346.07 213.87,345.03 214.15,343.99 214.54,342.95 214.82,341.91 215.04,340.87 215.32,339.84 215.66,338.80 216.05,337.76 216.33,336.72 216.55,335.68 216.83,334.64 217.22,333.60 217.55,332.57 217.77,331.53 218.11,330.49 218.44,329.45 218.66,328.41 219.00,327.37 219.28,326.36 219.61,325.32 219.83,324.28 220.11,323.24 220.44,322.21 220.88,321.17 221.16,320.13 221.44,319.09 221.77,318.05 222.16,317.01 222.49,315.98 222.88,314.94 223.26,313.90 223.48,312.86 223.81,311.82 224.15,310.78 224.48,309.74 224.70,308.71 224.97,307.67 225.36,306.63 225.74,305.59 226.02,304.55 226.35,303.51 226.73,302.47 227.01,301.46 227.28,300.42 227.61,299.38 227.83,298.35 228.10,297.31 228.38,296.27 228.71,295.23 229.09,294.19 229.36,293.15 229.58,292.11 229.91,291.08 230.18,290.04 230.46,289.00 230.73,287.96 231.11,286.92 231.33,285.88 231.60,284.85 231.98,283.81 232.37,282.77 232.64,281.73 232.86,280.69 233.13,279.65 233.45,278.61 233.78,277.60 234.05,276.56 234.38,275.52 234.65,274.49 234.92,273.45 235.25,272.41 235.68,271.37 236.11,270.33 236.44,269.29 236.71,268.25 237.14,267.22 237.47,266.18 237.79,265.14 238.11,264.10 238.60,263.06 238.92,262.02 239.30,260.98 239.52,259.95 240.00,258.91 240.43,257.87 240.81,256.83 241.24,255.79 241.51,254.75 241.88,253.72 242.21,252.70 242.53,251.66 242.85,250.62 243.17,249.59 243.55,248.55 243.92,247.51 244.40,246.47 244.72,245.43 245.15,244.39 245.63,243.36 245.95,242.32 246.38,241.28 246.80,240.24 247.23,239.20 247.66,238.16 248.19,237.12 248.56,236.09 248.99,235.05 249.52,234.01 249.89,232.97 250.37,231.93 250.74,230.89 251.32,229.85 251.80,228.84 252.22,227.80 252.70,226.76 253.12,225.73 253.54,224.69 253.86,223.65 254.38,222.61 254.96,221.57 255.38,220.53 255.86,219.49 256.23,218.46 256.80,217.42 257.17,216.38 257.64,215.34 258.06,214.30 258.48,213.26 258.95,212.23 259.37,211.19 259.89,210.15 260.52,209.11 261.15,208.07 261.62,207.03 262.40,205.99 263.13,204.96 263.70,203.94 264.32,202.90 264.89,201.87 265.62,200.83 266.19,199.79 266.81,198.75 267.48,197.71 268.10,196.67 268.77,195.63 269.24,194.60 269.80,193.56 270.47,192.52 270.94,191.48 271.50,190.44 272.12,189.40 272.53,188.36 273.04,187.33 273.65,186.29 274.17,185.25 274.83,184.21 275.29,183.17 275.90,182.13 276.47,181.10 276.97,180.08 277.54,179.04 278.20,178.01 278.70,176.97 279.42,175.93 279.87,174.89 280.43,173.85 281.09,172.81 281.90,171.77 282.40,170.74 283.06,169.70 283.72,168.66 284.52,167.62 285.18,166.58 285.68,165.54 286.33,164.50 286.99,163.47 287.64,162.43 288.24,161.39 288.79,160.35 289.34,159.31 289.89,158.27 290.34,157.23 290.74,156.20 291.34,155.18 291.99,154.14 292.49,153.11 293.08,152.07 293.68,151.03 294.23,149.99 294.87,148.95 295.47,147.91 296.16,146.88 296.85,145.84 297.69,144.80 298.68,143.76 299.52,142.72 300.45,141.68 301.73,140.64 302.96,139.61 304.52,138.57 305.99,137.53 307.26,136.49 308.23,135.45 309.49,134.41 310.12,133.37 311.43,132.34 312.54,131.32 313.70,130.28 314.62,129.25 315.58,128.21 316.40,127.17 317.60,126.13 318.89,125.09 320.28,124.05 321.18,123.01 322.09,121.98 323.18,120.94 324.56,119.90 325.79,118.86 327.12,117.82 328.30,116.78 329.71,115.74 331.45,114.71 332.95,113.67 334.50,112.63 335.85,111.59 338.04,110.55 340.04,109.51 342.49,108.48 346.27,107.44 349.80,106.42 354.49,105.39 359.41,104.35 363.50,103.31 367.07,102.27 371.60,101.23 376.62,100.19 379.99,99.15 385.39,98.12 390.82,97.08 410.43,96.04 421.48,95.41 428.83,95.05 429.80,95.00" fill="none" stroke="#dc2626" stroke-width="2.1"/>
<line x1="80" y1="568" x2="105" y2="568" stroke="#4b5563" stroke-width="3"/>
<text class="axis" x="113" y="572">ECMP (n=16384)</text>
<line x1="350" y1="568" x2="375" y2="568" stroke="#2563eb" stroke-width="3"/>
<text class="axis" x="383" y="572">DRILL (n=16384)</text>
<line x1="620" y1="568" x2="645" y2="568" stroke="#16a34a" stroke-width="3"/>
<text class="axis" x="653" y="572">CONGA (n=16384)</text>
<line x1="80" y1="591" x2="105" y2="591" stroke="#9333ea" stroke-width="3"/>
<text class="axis" x="113" y="595">LetFlow (n=16384)</text>
<line x1="350" y1="591" x2="375" y2="591" stroke="#d97706" stroke-width="3"/>
<text class="axis" x="383" y="595">ConWeave (n=16384)</text>
<line x1="620" y1="591" x2="645" y2="591" stroke="#dc2626" stroke-width="3"/>
<text class="axis" x="653" y="595">ClassReserve (n=16384)</text>
<text class="axis" text-anchor="middle" x="480" y="552">单流完成时间（微秒，log10）</text>
<text class="sub" x="945" y="627" text-anchor="end">原始 ID 与 SHA 见配套 CDF 索引；仿真 SHA ce699dffe2845dc8…</text>
</svg>
