<svg xmlns="http://www.w3.org/2000/svg" width="970" height="640" viewBox="0 0 970 640">
<rect width="100%" height="100%" fill="white"/>
<style>text{font-family:Arial,"Microsoft YaHei","Noto Sans CJK SC",sans-serif;fill:#1f2937}.title{font-size:22px;font-weight:700}.sub{font-size:13px;fill:#4b5563}.axis{font-size:13px}.grid{stroke:#e5e7eb;stroke-width:1}</style>
<text class="title" x="30" y="37">背景流完成时间累计分布</text>
<text class="sub" x="30" y="60">需求 seed 20262529 · 背景流 192 条 · 六种机制使用相同输入 · 横轴为对数刻度</text>
<line class="grid" x1="95.00" y1="95" x2="95.00" y2="510"/>
<text class="axis" text-anchor="middle" x="95.00" y="534">100</text>
<line class="grid" x1="608.33" y1="95" x2="608.33" y2="510"/>
<text class="axis" text-anchor="middle" x="608.33" y="534">1000</text>
<line class="grid" x1="95" y1="510.00" x2="865" y2="510.00"/>
<text class="axis" text-anchor="end" x="86" y="514.00">0%</text>
<line class="grid" x1="95" y1="406.25" x2="865" y2="406.25"/>
<text class="axis" text-anchor="end" x="86" y="410.25">25%</text>
<line class="grid" x1="95" y1="302.50" x2="865" y2="302.50"/>
<text class="axis" text-anchor="end" x="86" y="306.50">50%</text>
<line class="grid" x1="95" y1="198.75" x2="865" y2="198.75"/>
<text class="axis" text-anchor="end" x="86" y="202.75">75%</text>
<line class="grid" x1="95" y1="136.50" x2="865" y2="136.50"/>
<text class="axis" text-anchor="end" x="86" y="140.50">90%</text>
<line class="grid" x1="95" y1="99.15" x2="865" y2="99.15"/>
<text class="axis" text-anchor="end" x="86" y="103.15">99%</text>
<line class="grid" x1="95" y1="95.00" x2="865" y2="95.00"/>
<text class="axis" text-anchor="end" x="86" y="99.00">100%</text>
<rect x="95" y="95" width="770" height="415" fill="none" stroke="#374151"/>
<polyline points="282.37,507.84 319.56,505.68 337.31,503.52 344.30,501.35 347.82,499.19 366.39,497.03 373.13,494.87 377.48,492.71 378.18,490.55 378.74,488.39 378.86,486.22 385.92,484.06 389.22,481.90 393.51,479.74 393.85,477.58 397.27,475.42 398.21,473.26 399.29,471.09 400.23,468.93 403.86,466.77 417.84,464.61 424.75,462.45 425.31,460.29 425.70,458.12 427.06,455.96 429.14,453.80 442.08,451.64 442.72,449.48 445.27,447.32 447.93,445.16 448.48,442.99 453.93,440.83 456.04,438.67 456.42,436.51 456.48,434.35 460.83,432.19 463.41,430.03 465.63,427.86 466.55,425.70 469.58,423.54 470.83,421.38 473.43,419.22 474.51,417.06 480.08,414.90 484.83,412.73 487.89,410.57 487.95,408.41 489.76,406.25 490.88,404.09 494.24,401.93 496.77,399.77 498.33,397.60 498.44,395.44 498.89,393.28 499.65,391.12 507.16,388.96 507.22,386.80 508.78,384.64 508.98,382.47 509.75,380.31 509.76,378.15 509.98,375.99 510.28,373.83 511.71,371.67 513.63,369.51 513.79,367.34 513.82,365.18 513.95,363.02 514.99,360.86 521.88,358.70 522.18,356.54 522.34,354.38 522.34,352.21 523.12,350.05 523.80,347.89 526.33,345.73 527.01,343.57 527.10,341.41 527.30,339.24 527.34,337.08 527.57,334.92 527.65,332.76 527.89,330.60 527.90,328.44 527.95,326.28 528.21,324.11 528.47,321.95 530.24,319.79 530.42,317.63 530.53,315.47 530.84,313.31 530.86,311.15 531.05,308.98 531.07,306.82 531.85,304.66 531.96,302.50 533.76,300.34 534.85,298.18 536.89,296.02 537.88,293.85 539.84,291.69 542.06,289.53 546.42,287.37 549.61,285.21 549.91,283.05 550.03,280.89 550.11,278.72 552.09,276.56 552.51,274.40 553.13,272.24 554.31,270.08 562.10,267.92 563.06,265.76 564.28,263.59 565.07,261.43 568.14,259.27 568.38,257.11 568.42,254.95 568.67,252.79 569.64,250.62 569.66,248.46 569.69,246.30 569.71,244.14 571.71,241.98 579.34,239.82 579.75,237.66 579.85,235.49 579.85,233.33 579.86,231.17 579.87,229.01 579.89,226.85 582.66,224.69 584.71,222.53 588.11,220.36 591.58,218.20 591.97,216.04 594.35,213.88 594.96,211.72 595.36,209.56 595.50,207.40 595.59,205.23 601.23,203.07 603.25,200.91 603.25,198.75 603.25,196.59 603.26,194.43 603.32,192.27 606.37,190.10 607.60,187.94 608.22,185.78 608.22,183.62 608.22,181.46 608.23,179.30 610.20,177.14 611.57,174.97 611.63,172.81 611.73,170.65 611.74,168.49 611.74,166.33 611.74,164.17 611.81,162.01 612.42,159.84 612.65,157.68 613.05,155.52 613.28,153.36 613.36,151.20 613.44,149.04 617.31,146.88 618.47,144.71 622.46,142.55 622.84,140.39 623.28,138.23 624.50,136.07 631.75,133.91 633.10,131.74 633.78,129.58 634.15,127.42 642.38,125.26 644.98,123.10 645.06,120.94 648.63,118.78 652.88,116.61 655.30,114.45 655.37,112.29 661.04,110.13 671.28,107.97 680.73,105.81 686.46,103.65 698.86,101.48 702.63,99.32 705.83,97.16 706.52,95.00" fill="none" stroke="#4b5563" stroke-width="2.1"/>
<polyline points="287.37,507.84 474.17,505.68 475.46,503.52 478.95,501.35 480.91,499.19 488.13,497.03 488.16,494.87 488.44,492.71 491.61,490.55 494.77,488.39 499.14,486.22 500.61,484.06 501.57,481.90 501.98,479.74 502.75,477.58 503.16,475.42 503.38,473.26 503.91,471.09 506.48,468.93 506.84,466.77 508.90,464.61 509.15,462.45 511.26,460.29 514.76,458.12 515.47,455.96 515.68,453.80 515.95,451.64 522.74,449.48 523.11,447.32 523.45,445.16 524.18,442.99 524.81,440.83 525.52,438.67 528.64,436.51 528.71,434.35 528.82,432.19 528.91,430.03 530.80,427.86 531.01,425.70 531.52,423.54 533.60,421.38 534.38,419.22 536.80,417.06 537.24,414.90 537.86,412.73 538.43,410.57 539.68,408.41 544.04,406.25 544.72,404.09 545.25,401.93 548.54,399.77 551.09,397.60 551.92,395.44 557.09,393.28 557.36,391.12 558.87,388.96 559.67,386.80 559.83,384.64 559.87,382.47 559.94,380.31 561.02,378.15 562.51,375.99 562.92,373.83 564.65,371.67 568.60,369.51 569.38,367.34 571.09,365.18 571.35,363.02 571.52,360.86 571.56,358.70 571.72,356.54 572.01,354.38 572.20,352.21 572.33,350.05 572.34,347.89 572.53,345.73 572.61,343.57 573.44,341.41 573.53,339.24 573.80,337.08 573.88,334.92 576.45,332.76 576.86,330.60 576.96,328.44 578.26,326.28 579.87,324.11 580.32,321.95 581.19,319.79 581.65,317.63 581.68,315.47 583.07,313.31 585.63,311.15 586.24,308.98 586.25,306.82 589.12,304.66 589.79,302.50 590.92,300.34 592.56,298.18 592.63,296.02 592.99,293.85 593.03,291.69 593.07,289.53 593.13,287.37 595.17,285.21 595.97,283.05 596.16,280.89 597.55,278.72 598.38,276.56 603.59,274.40 604.74,272.24 605.60,270.08 605.63,267.92 605.81,265.76 605.84,263.59 605.90,261.43 605.97,259.27 606.28,257.11 611.92,254.95 612.09,252.79 612.76,250.62 613.46,248.46 616.73,246.30 616.85,244.14 616.92,241.98 617.38,239.82 619.01,237.66 619.32,235.49 619.33,233.33 619.34,231.17 619.37,229.01 619.53,226.85 620.21,224.69 621.11,222.53 621.38,220.36 622.40,218.20 622.47,216.04 622.55,213.88 622.59,211.72 622.74,209.56 622.83,207.40 623.15,205.23 624.14,203.07 624.16,200.91 625.76,198.75 627.56,196.59 627.69,194.43 630.50,192.27 630.99,190.10 631.05,187.94 631.11,185.78 631.14,183.62 631.21,181.46 633.25,179.30 633.67,177.14 634.53,174.97 634.58,172.81 634.65,170.65 634.70,168.49 634.77,166.33 636.36,164.17 637.77,162.01 638.15,159.84 639.19,157.68 641.59,155.52 650.37,153.36 650.79,151.20 651.32,149.04 652.71,146.88 653.16,144.71 654.63,142.55 658.08,140.39 664.89,138.23 667.03,136.07 673.37,133.91 673.90,131.74 674.34,129.58 674.82,127.42 675.06,125.26 675.13,123.10 683.12,120.94 683.43,118.78 685.78,116.61 688.54,114.45 689.48,112.29 690.98,110.13 691.28,107.97 691.83,105.81 701.69,103.65 705.03,101.48 710.15,99.32 712.30,97.16 727.69,95.00" fill="none" stroke="#2563eb" stroke-width="2.1"/>
<polyline points="234.70,507.84 310.38,505.68 312.53,503.52 331.81,501.35 337.80,499.19 350.06,497.03 361.13,494.87 378.12,492.71 378.38,490.55 378.85,488.39 384.46,486.22 387.64,484.06 390.12,481.90 392.91,479.74 407.39,477.58 408.23,475.42 410.64,473.26 418.51,471.09 418.60,468.93 421.29,466.77 421.57,464.61 427.13,462.45 429.44,460.29 429.91,458.12 433.07,455.96 434.58,453.80 439.35,451.64 440.05,449.48 441.98,447.32 442.66,445.16 447.30,442.99 448.65,440.83 449.37,438.67 451.00,436.51 453.62,434.35 454.56,432.19 455.19,430.03 455.37,427.86 457.44,425.70 460.60,423.54 461.22,421.38 464.98,419.22 465.70,417.06 468.30,414.90 470.51,412.73 477.26,410.57 478.23,408.41 478.89,406.25 481.17,404.09 500.03,401.93 502.38,399.77 503.93,397.60 505.23,395.44 506.09,393.28 506.78,391.12 507.43,388.96 508.57,386.80 508.62,384.64 509.19,382.47 511.52,380.31 511.66,378.15 511.70,375.99 513.12,373.83 516.43,371.67 518.38,369.51 519.23,367.34 519.39,365.18 519.96,363.02 520.04,360.86 521.08,358.70 521.11,356.54 521.28,354.38 523.73,352.21 524.68,350.05 525.16,347.89 525.68,345.73 527.37,343.57 527.65,341.41 528.32,339.24 528.38,337.08 528.56,334.92 528.95,332.76 529.13,330.60 529.98,328.44 530.22,326.28 530.45,324.11 532.29,321.95 532.56,319.79 538.40,317.63 541.10,315.47 541.57,313.31 541.95,311.15 543.27,308.98 543.73,306.82 544.57,304.66 547.06,302.50 548.48,300.34 550.42,298.18 550.84,296.02 552.71,293.85 556.47,291.69 559.02,289.53 559.03,287.37 559.15,285.21 560.03,283.05 561.54,280.89 562.41,278.72 562.42,276.56 563.46,274.40 563.47,272.24 563.59,270.08 563.68,267.92 564.10,265.76 564.48,263.59 565.03,261.43 566.12,259.27 566.57,257.11 566.57,254.95 570.24,252.79 571.74,250.62 572.20,248.46 572.95,246.30 574.19,244.14 575.89,241.98 577.31,239.82 578.60,237.66 578.61,235.49 578.65,233.33 578.77,231.17 579.15,229.01 581.97,226.85 581.98,224.69 581.99,222.53 583.51,220.36 584.84,218.20 585.42,216.04 587.34,213.88 587.36,211.72 590.57,209.56 592.49,207.40 592.75,205.23 593.01,203.07 596.51,200.91 599.39,198.75 599.50,196.59 599.50,194.43 599.73,192.27 601.71,190.10 603.53,187.94 604.88,185.78 605.02,183.62 605.11,181.46 605.12,179.30 605.12,177.14 608.45,174.97 608.46,172.81 608.46,170.65 608.58,168.49 608.80,166.33 612.37,164.17 613.04,162.01 613.36,159.84 617.11,157.68 619.00,155.52 619.01,153.36 619.01,151.20 619.01,149.04 619.01,146.88 619.03,144.71 619.06,142.55 619.11,140.39 620.48,138.23 624.40,136.07 628.30,133.91 630.72,131.74 631.58,129.58 632.32,127.42 633.14,125.26 633.66,123.10 636.48,120.94 638.04,118.78 643.87,116.61 648.00,114.45 648.03,112.29 655.52,110.13 658.58,107.97 659.43,105.81 661.63,103.65 662.67,101.48 667.64,99.32 668.69,97.16 683.76,95.00" fill="none" stroke="#16a34a" stroke-width="2.1"/>
<polyline points="282.83,507.84 327.60,505.68 333.78,503.52 358.29,501.35 366.75,499.19 369.86,497.03 372.87,494.87 373.65,492.71 376.68,490.55 378.55,488.39 381.73,486.22 384.95,484.06 410.64,481.90 412.88,479.74 413.66,477.58 414.70,475.42 417.41,473.26 419.38,471.09 421.87,468.93 425.06,466.77 426.43,464.61 426.48,462.45 429.25,460.29 437.17,458.12 437.24,455.96 438.48,453.80 439.80,451.64 445.99,449.48 446.60,447.32 449.66,445.16 451.31,442.99 452.10,440.83 452.42,438.67 458.60,436.51 459.76,434.35 460.33,432.19 462.26,430.03 462.62,427.86 464.60,425.70 466.37,423.54 466.64,421.38 469.11,419.22 470.43,417.06 477.58,414.90 478.66,412.73 480.00,410.57 481.75,408.41 482.06,406.25 487.67,404.09 488.21,401.93 497.78,399.77 497.92,397.60 500.41,395.44 500.48,393.28 500.52,391.12 501.72,388.96 502.57,386.80 502.64,384.64 504.44,382.47 506.05,380.31 506.97,378.15 507.10,375.99 507.52,373.83 507.79,371.67 508.30,369.51 508.66,367.34 509.30,365.18 510.53,363.02 511.84,360.86 513.14,358.70 515.21,356.54 515.44,354.38 520.72,352.21 521.43,350.05 522.39,347.89 524.56,345.73 526.36,343.57 526.58,341.41 526.88,339.24 526.97,337.08 527.82,334.92 528.27,332.76 528.53,330.60 528.85,328.44 528.93,326.28 529.19,324.11 529.24,321.95 529.39,319.79 529.39,317.63 529.58,315.47 533.28,313.31 536.18,311.15 537.34,308.98 537.45,306.82 539.94,304.66 540.77,302.50 540.81,300.34 544.04,298.18 546.22,296.02 546.84,293.85 546.91,291.69 547.46,289.53 550.19,287.37 553.48,285.21 553.51,283.05 553.82,280.89 553.88,278.72 553.90,276.56 554.56,274.40 554.90,272.24 554.93,270.08 557.85,267.92 558.43,265.76 559.43,263.59 560.12,261.43 564.62,259.27 564.62,257.11 569.98,254.95 571.06,252.79 574.93,250.62 575.84,248.46 578.50,246.30 578.87,244.14 578.97,241.98 579.11,239.82 579.43,237.66 581.22,235.49 583.06,233.33 587.35,231.17 587.88,229.01 588.43,226.85 588.71,224.69 594.67,222.53 595.08,220.36 595.19,218.20 595.97,216.04 598.36,213.88 598.46,211.72 598.47,209.56 598.47,207.40 600.18,205.23 600.18,203.07 600.20,200.91 600.21,198.75 600.33,196.59 601.14,194.43 602.60,192.27 603.44,190.10 608.40,187.94 609.03,185.78 609.20,183.62 613.66,181.46 613.70,179.30 615.04,177.14 615.05,174.97 615.20,172.81 615.20,170.65 615.20,168.49 615.21,166.33 615.21,164.17 615.29,162.01 615.30,159.84 615.31,157.68 615.84,155.52 615.98,153.36 616.72,151.20 618.86,149.04 618.86,146.88 618.87,144.71 618.94,142.55 618.99,140.39 619.04,138.23 623.21,136.07 630.63,133.91 634.32,131.74 637.62,129.58 637.86,127.42 640.63,125.26 642.89,123.10 645.69,120.94 646.22,118.78 648.21,116.61 653.07,114.45 658.86,112.29 662.83,110.13 675.22,107.97 675.24,105.81 693.20,103.65 694.50,101.48 697.79,99.32 700.72,97.16 705.89,95.00" fill="none" stroke="#9333ea" stroke-width="2.1"/>
<polyline points="277.13,507.84 280.97,505.68 303.76,503.52 332.92,501.35 339.06,499.19 341.88,497.03 365.42,494.87 376.54,492.71 377.47,490.55 377.71,488.39 381.14,486.22 382.77,484.06 383.24,481.90 384.34,479.74 387.25,477.58 392.26,475.42 393.07,473.26 395.00,471.09 396.23,468.93 396.88,466.77 396.91,464.61 402.29,462.45 415.90,460.29 420.35,458.12 423.37,455.96 424.50,453.80 427.44,451.64 428.09,449.48 429.98,447.32 431.14,445.16 448.21,442.99 449.65,440.83 454.35,438.67 455.22,436.51 456.64,434.35 456.80,432.19 457.11,430.03 458.82,427.86 462.83,425.70 463.36,423.54 465.70,421.38 466.11,419.22 469.13,417.06 469.70,414.90 474.02,412.73 474.83,410.57 477.24,408.41 477.59,406.25 478.02,404.09 494.53,401.93 494.56,399.77 497.03,397.60 498.59,395.44 499.61,393.28 499.77,391.12 499.79,388.96 500.02,386.80 500.17,384.64 501.26,382.47 501.53,380.31 504.41,378.15 505.91,375.99 508.91,373.83 509.40,371.67 510.92,369.51 510.96,367.34 513.22,365.18 515.29,363.02 519.09,360.86 520.17,358.70 522.09,356.54 523.09,354.38 523.58,352.21 523.64,350.05 524.10,347.89 524.23,345.73 524.36,343.57 524.49,341.41 524.69,339.24 525.66,337.08 525.88,334.92 527.56,332.76 527.58,330.60 527.63,328.44 527.69,326.28 527.82,324.11 527.88,321.95 528.12,319.79 528.48,317.63 531.67,315.47 532.25,313.31 532.31,311.15 534.24,308.98 536.33,306.82 536.45,304.66 536.74,302.50 537.22,300.34 537.62,298.18 540.47,296.02 542.30,293.85 542.37,291.69 544.99,289.53 548.46,287.37 548.98,285.21 549.32,283.05 549.93,280.89 550.37,278.72 553.95,276.56 557.26,274.40 557.40,272.24 558.34,270.08 559.63,267.92 561.96,265.76 564.70,263.59 565.24,261.43 565.49,259.27 565.74,257.11 567.01,254.95 567.40,252.79 567.79,250.62 567.88,248.46 568.29,246.30 569.37,244.14 569.63,241.98 572.94,239.82 577.86,237.66 579.26,235.49 579.56,233.33 580.43,231.17 582.22,229.01 583.25,226.85 583.38,224.69 584.54,222.53 584.55,220.36 585.07,218.20 586.90,216.04 587.47,213.88 590.12,211.72 593.20,209.56 593.22,207.40 593.51,205.23 597.44,203.07 597.61,200.91 597.75,198.75 598.90,196.59 600.18,194.43 600.36,192.27 600.78,190.10 602.71,187.94 603.47,185.78 603.77,183.62 605.11,181.46 610.54,179.30 610.54,177.14 611.32,174.97 611.43,172.81 611.45,170.65 611.45,168.49 611.71,166.33 611.79,164.17 612.64,162.01 618.72,159.84 618.72,157.68 618.73,155.52 618.73,153.36 618.97,151.20 619.05,149.04 627.30,146.88 631.96,144.71 633.33,142.55 634.56,140.39 635.17,138.23 638.30,136.07 639.01,133.91 639.28,131.74 639.85,129.58 641.21,127.42 642.16,125.26 644.56,123.10 647.07,120.94 648.44,118.78 655.59,116.61 655.85,114.45 657.33,112.29 661.00,110.13 673.28,107.97 673.31,105.81 678.14,103.65 687.84,101.48 697.63,99.32 699.38,97.16 715.09,95.00" fill="none" stroke="#d97706" stroke-width="2.1"/>
<polyline points="281.44,507.84 318.97,505.68 326.72,503.52 348.65,501.35 373.79,499.19 376.07,497.03 377.26,494.87 379.81,492.71 385.42,490.55 390.56,488.39 391.14,486.22 397.54,484.06 397.92,481.90 408.91,479.74 414.14,477.58 418.02,475.42 421.60,473.26 421.66,471.09 425.24,468.93 433.54,466.77 435.56,464.61 436.19,462.45 436.50,460.29 437.71,458.12 438.93,455.96 439.43,453.80 441.54,451.64 442.51,449.48 447.74,447.32 450.19,445.16 452.92,442.99 453.03,440.83 454.15,438.67 455.50,436.51 455.53,434.35 455.77,432.19 457.48,430.03 458.82,427.86 466.05,425.70 466.83,423.54 467.41,421.38 468.76,419.22 470.43,417.06 476.78,414.90 478.98,412.73 479.23,410.57 481.57,408.41 483.90,406.25 484.86,404.09 485.92,401.93 486.47,399.77 486.66,397.60 486.83,395.44 490.47,393.28 491.68,391.12 495.72,388.96 500.14,386.80 500.93,384.64 501.04,382.47 502.67,380.31 502.83,378.15 503.93,375.99 505.28,373.83 506.62,371.67 507.34,369.51 507.36,367.34 507.45,365.18 507.82,363.02 511.68,360.86 512.50,358.70 516.17,356.54 517.92,354.38 519.71,352.21 519.71,350.05 521.59,347.89 522.48,345.73 524.21,343.57 525.35,341.41 526.70,339.24 526.94,337.08 527.23,334.92 527.44,332.76 527.51,330.60 527.57,328.44 527.58,326.28 527.71,324.11 527.83,321.95 528.63,319.79 528.71,317.63 528.79,315.47 529.91,313.31 530.50,311.15 530.70,308.98 530.77,306.82 531.04,304.66 532.32,302.50 532.84,300.34 532.85,298.18 532.86,296.02 537.10,293.85 537.14,291.69 537.22,289.53 537.25,287.37 538.83,285.21 538.93,283.05 539.03,280.89 541.80,278.72 541.88,276.56 541.99,274.40 542.38,272.24 548.59,270.08 550.46,267.92 550.74,265.76 551.44,263.59 555.34,261.43 555.36,259.27 555.37,257.11 555.59,254.95 555.93,252.79 556.44,250.62 558.56,248.46 562.68,246.30 562.92,244.14 566.26,241.98 568.76,239.82 571.89,237.66 572.68,235.49 577.20,233.33 577.97,231.17 579.36,229.01 579.46,226.85 579.46,224.69 579.47,222.53 579.64,220.36 579.86,218.20 585.30,216.04 587.66,213.88 590.60,211.72 590.61,209.56 590.79,207.40 590.82,205.23 593.47,203.07 593.51,200.91 597.43,198.75 598.85,196.59 598.97,194.43 602.12,192.27 605.70,190.10 605.80,187.94 605.81,185.78 605.81,183.62 605.86,181.46 606.25,179.30 606.26,177.14 606.33,174.97 606.49,172.81 606.65,170.65 607.33,168.49 609.44,166.33 609.45,164.17 609.53,162.01 609.54,159.84 609.55,157.68 609.68,155.52 613.08,153.36 616.98,151.20 618.97,149.04 618.97,146.88 618.97,144.71 618.97,142.55 618.98,140.39 619.05,138.23 623.56,136.07 627.05,133.91 631.57,131.74 635.47,129.58 636.37,127.42 643.07,125.26 648.81,123.10 650.66,120.94 651.59,118.78 651.99,116.61 656.46,114.45 658.02,112.29 667.08,110.13 671.11,107.97 676.87,105.81 689.37,103.65 689.88,101.48 694.09,99.32 708.81,97.16 716.05,95.00" fill="none" stroke="#dc2626" stroke-width="2.1"/>
<line x1="80" y1="568" x2="105" y2="568" stroke="#4b5563" stroke-width="3"/>
<text class="axis" x="113" y="572">ECMP (n=192)</text>
<line x1="350" y1="568" x2="375" y2="568" stroke="#2563eb" stroke-width="3"/>
<text class="axis" x="383" y="572">DRILL (n=192)</text>
<line x1="620" y1="568" x2="645" y2="568" stroke="#16a34a" stroke-width="3"/>
<text class="axis" x="653" y="572">CONGA (n=192)</text>
<line x1="80" y1="591" x2="105" y2="591" stroke="#9333ea" stroke-width="3"/>
<text class="axis" x="113" y="595">LetFlow (n=192)</text>
<line x1="350" y1="591" x2="375" y2="591" stroke="#d97706" stroke-width="3"/>
<text class="axis" x="383" y="595">ConWeave (n=192)</text>
<line x1="620" y1="591" x2="645" y2="591" stroke="#dc2626" stroke-width="3"/>
<text class="axis" x="653" y="595">ClassReserve (n=192)</text>
<text class="axis" text-anchor="middle" x="480" y="552">单流完成时间（微秒，log10）</text>
<text class="sub" x="945" y="627" text-anchor="end">原始 ID 与 SHA 见配套 CDF 索引；仿真 SHA ce699dffe2845dc8…</text>
</svg>
